<svg version="1.1" viewBox="0.0 0.0 195.54855643044618 181.23097112860893" fill="none" stroke="none" stroke-linecap="square" stroke-miterlimit="10" xmlns:xlink="http://www.w3.org/1999/xlink" xmlns="http://www.w3.org/2000/svg"><clipPath id="p.0"><path d="m0 0l195.54855 0l0 181.23097l-195.54855 0l0 -181.23097z" clip-rule="nonzero"/></clipPath><g clip-path="url(#p.0)"><path fill="#000000" fill-opacity="0.0" d="m0 0l195.54855 0l0 181.23097l-195.54855 0z" fill-rule="evenodd"/><path fill="#cfe2f3" d="m12.910761 15.170604l27.758532 0l0 0l41.63779 0l97.15486 0l0 80.19685l0 0l0 34.37008l0 22.913391l-97.15486 0l-20.81834 17.185028l-20.81945 -17.185028l-27.758532 0l0 -22.913391l0 -34.37008l0 0z" fill-rule="evenodd"/><path stroke="#1155cc" stroke-width="4.0" stroke-linejoin="round" stroke-linecap="butt" d="m12.910761 15.170604l27.758532 0l0 0l41.63779 0l97.15486 0l0 80.19685l0 0l0 34.37008l0 22.913391l-97.15486 0l-20.81834 17.185028l-20.81945 -17.185028l-27.758532 0l0 -22.913391l0 -34.37008l0 0z" fill-rule="evenodd"/></g></svg>