<svg version="1.1" viewBox="0.0 0.0 195.54855643044618 181.23097112860893" fill="none" stroke="none" stroke-linecap="square" stroke-miterlimit="10" xmlns:xlink="http://www.w3.org/1999/xlink" xmlns="http://www.w3.org/2000/svg"><clipPath id="p.0"><path d="m0 0l195.54855 0l0 181.23097l-195.54855 0l0 -181.23097z" clip-rule="nonzero"/></clipPath><g clip-path="url(#p.0)"><path fill="#000000" fill-opacity="0.0" d="m0 0l195.54855 0l0 181.23097l-195.54855 0z" fill-rule="evenodd"/><path fill="#cfe2f3" d="m17.569553 4.110236l160.40945 0l0 146.27243l-26.735443 26.735443l-133.67401 0z" fill-rule="evenodd"/><path fill="#a5b4c2" d="m151.24356 177.1181l5.3470917 -21.388351l21.388351 -5.3470917z" fill-rule="evenodd"/><path fill="#000000" fill-opacity="0.0" d="m151.24356 177.1181l5.3470917 -21.388351l21.388351 -5.3470917l-26.735443 26.735443l-133.67401 0l0 -173.00787l160.40945 0l0 146.27243" fill-rule="evenodd"/><path stroke="#1155cc" stroke-width="4.0" stroke-linejoin="round" stroke-linecap="butt" d="m151.24356 177.1181l5.3470917 -21.388351l21.388351 -5.3470917l-26.735443 26.735443l-133.67401 0l0 -173.00787l160.40945 0l0 146.27243" fill-rule="evenodd"/><path fill="#1155cc" d="m61.150597 93.66236l0 0c0 -20.134476 16.95678 -36.456696 37.874016 -36.456696l0 0c10.044815 0 19.678223 3.8409615 26.780975 10.6779175c7.1027527 6.83696 11.093048 16.109856 11.093048 25.778778l0 0c0 20.134476 -16.95678 36.456688 -37.874023 36.456688l0 0c-20.917236 0 -37.874016 -16.322212 -37.874016 -36.456688z" fill-rule="evenodd"/><path fill="#1155cc" d="m68.65707 73.073616l5.0078735 -19.433071l17.6063 9.543304z" fill-rule="evenodd"/><path fill="#1155cc" d="m107.98516 65.046265l17.543304 -9.685043l5.1338577 19.354332z" fill-rule="evenodd"/><path fill="#1155cc" d="m72.09848 177.12073l0 -27.590546l0 0c0 -15.237839 11.034241 -27.590546 24.645668 -27.590546c13.611427 0 24.645668 12.352707 24.645668 27.590546l0 27.590546z" fill-rule="evenodd"/><path fill="#000000" fill-opacity="0.0" d="m44.593014 126.29101c-1.6387367 3.5056076 -5.2355614 9.1568985 -2.095501 11.418465c4.68874 3.376999 12.266666 -3.567093 17.318066 -0.76142883c5.896595 3.2750854 -8.172459 13.134964 -5.7076874 19.413574c2.7851562 7.0947266 16.405918 5.232895 22.83694 1.1421509" fill-rule="evenodd"/><path stroke="#1155cc" stroke-width="8.0" stroke-linejoin="round" stroke-linecap="butt" d="m44.593014 126.29101c-1.6387367 3.5056076 -5.2355614 9.1568985 -2.095501 11.418465c4.68874 3.376999 12.266666 -3.567093 17.318066 -0.76142883c5.896595 3.2750854 -8.172459 13.134964 -5.7076874 19.413574c2.7851562 7.0947266 16.405918 5.232895 22.83694 1.1421509" fill-rule="evenodd"/></g></svg>