<svg version="1.1" viewBox="0.0 0.0 859.7375328083989 408.93438320209975" fill="none" stroke="none" stroke-linecap="square" stroke-miterlimit="10" xmlns:xlink="http://www.w3.org/1999/xlink" xmlns="http://www.w3.org/2000/svg"><clipPath id="p.0"><path d="m0 0l859.73755 0l0 408.9344l-859.73755 0l0 -408.9344z" clip-rule="nonzero"/></clipPath><g clip-path="url(#p.0)"><path fill="#000000" fill-opacity="0.0" d="m0 0l859.73755 0l0 408.9344l-859.73755 0z" fill-rule="evenodd"/><path fill="#cfe2f3" d="m316.43237 273.90976l-251.07594 0l0 58.886963l251.07594 0z" fill-rule="evenodd"/><path fill="#a5b4c2" d="m65.35643 273.90976l-47.097282 -47.09729l0 58.886963l47.097282 47.09729z" fill-rule="evenodd"/><path fill="#d8e7f5" d="m316.43237 273.90976l-47.09729 -47.09729l-251.07594 0l47.097282 47.09729z" fill-rule="evenodd"/><path fill="#000000" fill-opacity="0.0" d="m316.43237 273.90976l-47.09729 -47.09729l-251.07594 0l0 58.886963l47.097282 47.09729l251.07594 0zm0 0l-251.07594 0l-47.097282 -47.09729m47.097282 47.09729l0 58.886963" fill-rule="evenodd"/><path stroke="#1155cc" stroke-width="2.0" stroke-linejoin="round" stroke-linecap="butt" d="m316.43237 273.90976l-47.09729 -47.09729l-251.07594 0l0 58.886963l47.097282 47.09729l251.07594 0zm0 0l-251.07594 0l-47.097282 -47.09729m47.097282 47.09729l0 58.886963" fill-rule="evenodd"/><path fill="#cfe2f3" d="m138.46584 177.56706l0 0c0 4.7292023 15.335129 8.562988 34.25197 8.562988c18.916855 0 34.251984 -3.833786 34.251984 -8.562988l0 73.866135c0 4.7292175 -15.335129 8.562988 -34.251984 8.562988c-18.91684 0 -34.25197 -3.8337708 -34.25197 -8.562988z" fill-rule="evenodd"/><path fill="#e2edf7" d="m138.46584 177.56706l0 0c0 -4.7292175 15.335129 -8.562988 34.25197 -8.562988c18.916855 0 34.251984 3.8337708 34.251984 8.562988l0 0c0 4.7292023 -15.335129 8.562988 -34.251984 8.562988c-18.91684 0 -34.25197 -3.833786 -34.25197 -8.562988z" fill-rule="evenodd"/><path fill="#000000" fill-opacity="0.0" d="m206.96979 177.56706l0 0c0 4.7292023 -15.335129 8.562988 -34.251984 8.562988c-18.91684 0 -34.25197 -3.833786 -34.25197 -8.562988l0 0c0 -4.7292175 15.335129 -8.562988 34.25197 -8.562988c18.916855 0 34.251984 3.8337708 34.251984 8.562988l0 73.866135c0 4.7292175 -15.335129 8.562988 -34.251984 8.562988c-18.91684 0 -34.25197 -3.8337708 -34.25197 -8.562988l0 -73.866135" fill-rule="evenodd"/><path stroke="#1155cc" stroke-width="2.0" stroke-linejoin="round" stroke-linecap="butt" d="m206.96979 177.56706l0 0c0 4.7292023 -15.335129 8.562988 -34.251984 8.562988c-18.91684 0 -34.25197 -3.833786 -34.25197 -8.562988l0 0c0 -4.7292175 15.335129 -8.562988 34.25197 -8.562988c18.916855 0 34.251984 3.8337708 34.251984 8.562988l0 73.866135c0 4.7292175 -15.335129 8.562988 -34.251984 8.562988c-18.91684 0 -34.25197 -3.8337708 -34.25197 -8.562988l0 -73.866135" fill-rule="evenodd"/><path fill="#cfe2f3" d="m299.55325 43.58346l-253.87323 0l0 160.77086l253.87323 0z" fill-rule="evenodd"/><path fill="#a5b4c2" d="m45.68002 43.58346l-21.244877 -21.244879l0 160.77087l21.244877 21.244873z" fill-rule="evenodd"/><path fill="#d8e7f5" d="m299.55325 43.58346l-21.244873 -21.244879l-253.87323 0l21.244877 21.244879z" fill-rule="evenodd"/><path fill="#000000" fill-opacity="0.0" d="m299.55325 43.58346l-21.244873 -21.244879l-253.87323 0l0 160.77087l21.244877 21.244873l253.87323 0zm0 0l-253.87323 0l-21.244877 -21.244879m21.244877 21.244879l0 160.77086" fill-rule="evenodd"/><path stroke="#1155cc" stroke-width="2.0" stroke-linejoin="round" stroke-linecap="butt" d="m299.55325 43.58346l-21.244873 -21.244879l-253.87323 0l0 160.77087l21.244877 21.244873l253.87323 0zm0 0l-253.87323 0l-21.244877 -21.244879m21.244877 21.244879l0 160.77086" fill-rule="evenodd"/><path fill="#1155cc" d="m66.46557 57.005814l214.11023 0l0 130.86615l-214.11023 0z" fill-rule="evenodd"/><path stroke="#1155cc" stroke-width="2.0" stroke-linejoin="round" stroke-linecap="butt" d="m66.46557 57.005814l214.11023 0l0 130.86615l-214.11023 0z" fill-rule="evenodd"/><path fill="#cfe2f3" d="m350.31613 370.80505l-282.65143 0l0 19.407349l282.65143 0z" fill-rule="evenodd"/><path fill="#a5b4c2" d="m67.66471 370.80505l-15.521809 -15.52179l0 19.407318l15.521809 15.52182z" fill-rule="evenodd"/><path fill="#d8e7f5" d="m350.31613 370.80505l-15.52182 -15.52179l-282.6514 0l15.521809 15.52179z" fill-rule="evenodd"/><path fill="#000000" fill-opacity="0.0" d="m350.31613 370.80505l-15.52182 -15.52179l-282.6514 0l0 19.407318l15.521809 15.52182l282.65143 0zm0 0l-282.65143 0l-15.521809 -15.52179m15.521809 15.52179l0 19.407349" fill-rule="evenodd"/><path stroke="#1155cc" stroke-width="2.0" stroke-linejoin="round" stroke-linecap="butt" d="m350.31613 370.80505l-15.52182 -15.52179l-282.6514 0l0 19.407318l15.521809 15.52182l282.65143 0zm0 0l-282.65143 0l-15.521809 -15.52179m15.521809 15.52179l0 19.407349" fill-rule="evenodd"/><path fill="#cfe2f3" d="m368.58133 367.44153l0.03149414 -11.590576l0 0c0.01739502 -6.4012756 9.366547 -11.590546 20.881897 -11.590546c11.51535 0 20.836304 5.18927 20.818909 11.590546l-0.03149414 11.590576z" fill-rule="evenodd"/><path stroke="#1155cc" stroke-width="2.0" stroke-linejoin="round" stroke-linecap="butt" d="m368.58133 367.44153l0.03149414 -11.590576l0 0c0.01739502 -6.4012756 9.366547 -11.590546 20.881897 -11.590546c11.51535 0 20.836304 5.18927 20.818909 11.590546l-0.03149414 11.590576z" fill-rule="evenodd"/><path fill="#000000" fill-opacity="0.0" d="m235.88867 307.1089l53.543304 1.102356" fill-rule="evenodd"/><path stroke="#1155cc" stroke-width="2.0" stroke-linejoin="round" stroke-linecap="butt" d="m235.88867 307.1089l53.543304 1.102356" fill-rule="evenodd"/><path fill="#000000" fill-opacity="0.0" d="m193.46861 355.28326l-2.582672 -22.48819" fill-rule="evenodd"/><path stroke="#1155cc" stroke-width="2.0" stroke-linejoin="round" stroke-linecap="butt" d="m193.46861 355.28326l-2.582672 -22.48819" fill-rule="evenodd"/><path fill="#cfe2f3" d="m393.78455 181.7014c0.96810913 3.3884125 2.448761 7.7164764 4.4419556 12.984192l6.53479 17.340729l-21.227448 0l6.8764954 -18.365799c1.452179 -3.957901 2.5769043 -7.944275 3.3742065 -11.959122zm-4.271118 -6.5775146l-24.046387 62.614548l8.798492 0l6.8764954 -18.963745l26.181946 0l7.303589 18.963745l9.439178 0l-25.626678 -62.614548z" fill-rule="evenodd"/><path fill="#cfe2f3" d="m429.53378 175.12389l0 62.614548l7.6879883 0l0 -62.614548z" fill-rule="evenodd"/><path fill="#cfe2f3" d="m467.84567 197.67537c3.90094 0 7.0758057 1.4806519 9.524597 4.441971c1.5945435 1.9077606 2.5626526 4.769409 2.904358 8.58493l-25.327728 0c0.25628662 -3.957901 1.5850525 -7.118515 3.9863892 -9.481873c2.410797 -2.3633423 5.381592 -3.5450287 8.912384 -3.5450287zm-0.0854187 -6.3212433c-6.2643127 0 -11.361176 2.1070862 -15.290588 6.3212433c-3.9294434 4.2141724 -5.8941345 10.13678 -5.8941345 17.767838c0 7.3748016 1.940979 13.10759 5.822937 17.198364c3.891449 4.0812836 9.154419 6.121933 15.78891 6.121933c5.2677 0 9.595764 -1.2813416 12.984161 -3.8440094c3.3884277 -2.5626678 5.709076 -6.1646423 6.9619446 -10.805923l-7.944275 -0.9823456c-1.16745 3.246048 -2.7477722 5.6093903 -4.7409363 7.090042c-1.9931946 1.4806519 -4.3992615 2.2209778 -7.2182007 2.2209778c-3.7870483 0 -6.947693 -1.3240356 -9.481873 -3.9721222c-2.5342102 -2.6481018 -3.9436646 -6.463623 -4.2283936 -11.446594l33.82721 0c0.0284729 -0.9111786 0.04272461 -1.5945587 0.04272461 -2.0501404c0 -7.488693 -1.9219971 -13.297409 -5.765991 -17.426147c-3.8440247 -4.1287384 -8.798523 -6.193115 -14.863495 -6.193115z" fill-rule="evenodd"/><path fill="#cfe2f3" d="m493.89948 192.3792l15.333313 21.782684l-16.57193 23.576553l9.311035 0l11.916412 -17.895966l2.477234 3.8012848l9.311035 14.094681l9.439148 0l-16.87091 -24.003662l15.674988 -21.355576l-9.182861 0l-7.6453247 10.7204895c-1.0535278 1.452179 -2.206726 3.11792 -3.4595947 4.9972076c-0.7972412 -1.3667603 -1.8507996 -3.0609589 -3.160614 -5.0826263l-6.961914 -10.635071z" fill-rule="evenodd"/><path fill="#cfe2f3" d="m567.06366 175.12389l0 62.614548l8.286011 0l0 -29.513412l32.5459 0l0 29.513412l8.28595 0l0 -62.614548l-8.28595 0l0 25.712112l-32.5459 0l0 -25.712112z" fill-rule="evenodd"/><path fill="#cfe2f3" d="m657.953 214.97339l0 2.8189392c0 3.3884125 -0.4128418 5.9510803 -1.2385864 7.6880035c-1.0820312 2.2494507 -2.776245 4.024338 -5.0826416 5.3246613c-2.3063965 1.2908173 -4.9402466 1.9362335 -7.9015503 1.9362335c-2.9898071 0 -5.2630005 -0.6833801 -6.81958 -2.0501251c-1.5470581 -1.3667603 -2.3206177 -3.0752106 -2.3206177 -5.125351c0 -1.3382721 0.355896 -2.5531769 1.067749 -3.6446838c0.711853 -1.1009979 1.7227173 -1.9362335 3.0325317 -2.505722c1.3098145 -0.56947327 3.544983 -1.082016 6.7056274 -1.5375977c5.5809326 -0.7972717 9.766602 -1.7653961 12.557068 -2.904358zm-9.780823 -23.619263c-3.90094 0 -7.3320923 0.5362549 -10.293396 1.6087799c-2.9613037 1.063034 -5.2249756 2.5863953 -6.7910767 4.570099c-1.5661011 1.9741974 -2.690796 4.570099 -3.3742065 7.7876587l7.517212 1.0250702c0.8257446 -3.217575 2.0975952 -5.457535 3.8154907 -6.719879c1.727417 -1.2718506 4.399292 -1.9077759 8.015503 -1.9077759c3.8724365 0 6.7910156 0.86846924 8.755737 2.6053925c1.4522095 1.2813263 2.1782837 3.4880676 2.1782837 6.620224c0 0.28474426 -0.014221191 0.95388794 -0.04272461 2.0074158c-2.9328003 1.0250702 -7.5029297 1.9077759 -13.710266 2.6481018c-3.046753 0.37016296 -5.324646 0.7545624 -6.8338013 1.1531982c-2.0501099 0.5694885 -3.8961792 1.4094696 -5.538208 2.5199585c-1.6325073 1.1104889 -2.956543 2.5863953 -3.972107 4.427719c-1.0061035 1.8318329 -1.5091553 3.8582458 -1.5091553 6.0792236c0 3.7870636 1.3383179 6.900223 4.0148315 9.339508c2.6765747 2.429779 6.5063477 3.6446838 11.489319 3.6446838c3.0182495 0 5.84198 -0.49829102 8.471069 -1.4948883c2.6386108 -0.9965973 5.381592 -2.7050476 8.229004 -5.1253357c0.2277832 2.135559 0.74035645 4.0006104 1.5375977 5.595154l8.029724 0c-0.96813965 -1.7369232 -1.6182861 -3.5497742 -1.9505005 -5.438553c-0.32269287 -1.8982697 -0.48406982 -6.4209137 -0.48406982 -13.567902l0 -10.250687c0 -3.4168854 -0.1281128 -5.780243 -0.3843994 -7.090042c-0.4555664 -2.1070862 -1.2528687 -3.848755 -2.3917847 -5.225006c-1.138977 -1.3857422 -2.9186401 -2.534195 -5.338928 -3.4453583c-2.420288 -0.9111786 -5.5667114 -1.3667603 -9.439148 -1.3667603z" fill-rule="evenodd"/><path fill="#cfe2f3" d="m694.30023 191.35413c-1.7938843 0 -3.4406128 0.51252747 -4.9402466 1.5375977c-1.4901733 1.0250702 -3.11792 3.1463928 -4.883362 6.363968l0 -6.8764954l-6.9191895 0l0 45.359238l7.6879883 0l0 -23.747406c0 -3.246048 0.42712402 -6.2358246 1.2813721 -8.96933c0.569458 -1.793869 1.5233765 -3.1938477 2.8616333 -4.199936c1.3382568 -1.0155792 2.847412 -1.5233612 4.527405 -1.5233612c1.8792725 0 3.758545 0.5552368 5.6378784 1.6657257l2.6480713 -7.1327515c-2.6765747 -1.6515045 -5.310425 -2.4772491 -7.9015503 -2.4772491z" fill-rule="evenodd"/><path fill="#cfe2f3" d="m723.4292 191.35413c-1.7938232 0 -3.4406128 0.51252747 -4.9402466 1.5375977c-1.4901123 1.0250702 -3.11792 3.1463928 -4.883301 6.363968l0 -6.8764954l-6.9191895 0l0 45.359238l7.6879883 0l0 -23.747406c0 -3.246048 0.42712402 -6.2358246 1.281311 -8.96933c0.56951904 -1.793869 1.5233765 -3.1938477 2.8616943 -4.199936c1.3382568 -1.0155792 2.847412 -1.5233612 4.5273438 -1.5233612c1.8793335 0 3.758606 0.5552368 5.6378784 1.6657257l2.6481323 -7.1327515c-2.6765747 -1.6515045 -5.310425 -2.4772491 -7.9016113 -2.4772491z" fill-rule="evenodd"/><path fill="#cfe2f3" d="m735.9436 175.12389l0 8.841202l7.6879883 0l0 -8.841202zm0 17.25531l0 45.359238l7.6879883 0l0 -45.359238z" fill-rule="evenodd"/><path fill="#cfe2f3" d="m770.24066 191.35413c-2.3633423 0 -4.57959 0.30847168 -6.6487427 0.9253998c-2.0596313 0.6074524 -3.687378 1.3525238 -4.883301 2.2352295c-1.5945435 1.1389618 -2.8568726 2.5721588 -3.7870483 4.299576c-0.9206543 1.7179413 -1.3809814 3.587738 -1.3809814 5.6094055c0 2.2209778 0.55999756 4.252136 1.6799927 6.09346c1.1294556 1.8318329 2.7809448 3.2697754 4.954468 4.3138275c2.1829834 1.0345459 6.093445 2.2636871 11.731323 3.6873932c4.18573 1.0535431 6.805298 1.9219971 7.8588867 2.6053772c1.5090942 0.9965973 2.2636719 2.3633575 2.2636719 4.100281c0 1.9362335 -0.85424805 3.6256866 -2.562683 5.06839c-1.708435 1.4331818 -4.328064 2.1497803 -7.8588257 2.1497803c-3.5023193 0 -6.231079 -0.8115082 -8.18634 -2.4345245c-1.9457397 -1.6230316 -3.132141 -3.957901 -3.5592651 -7.0046387l-7.602539 1.1959229c0.854187 4.8121185 2.8236694 8.442566 5.908325 10.891342c3.0941772 2.4487762 7.588379 3.6731567 13.482483 3.6731567c3.5592651 0 6.748413 -0.61694336 9.567322 -1.8508148c2.8189697 -1.2433777 4.9734497 -2.9945374 6.463623 -5.253479c1.4996338 -2.2684326 2.2494507 -4.6839905 2.2494507 -7.2466583c0 -2.6196136 -0.6121826 -4.8121185 -1.8365479 -6.5775146c-1.2244263 -1.7653961 -2.9138794 -3.108429 -5.0684204 -4.0290833c-2.1450195 -0.9301605 -5.9368286 -2.1213226 -11.375427 -3.5735016c-3.758545 -1.0250702 -6.022217 -1.6799774 -6.7910156 -1.9647064c-1.3383179 -0.5410156 -2.3206787 -1.2243958 -2.9470825 -2.0501404c-0.62646484 -0.7972717 -0.93963623 -1.6942139 -0.93963623 -2.6908112c0 -1.5660706 0.7545166 -2.9328308 2.2636719 -4.1002655c1.5090942 -1.1674347 4.0290527 -1.7511597 7.5598755 -1.7511597c2.989746 0 5.3009033 0.6549072 6.9334106 1.9647217c1.6420288 1.3097992 2.63385 3.132141 2.975586 5.4670258l7.517151 -1.0250702c-0.48406982 -2.9328308 -1.3667603 -5.272461 -2.6480713 -7.01886c-1.2813721 -1.7559052 -3.2697754 -3.1463928 -5.965332 -4.171463c-2.6860962 -1.0250702 -5.808716 -1.5375977 -9.367981 -1.5375977z" fill-rule="evenodd"/><path stroke="#1155cc" stroke-width="2.0" stroke-linejoin="round" stroke-linecap="butt" d="m393.78455 181.7014c0.96810913 3.3884125 2.448761 7.7164764 4.4419556 12.984192l6.53479 17.340729l-21.227448 0l6.8764954 -18.365799c1.452179 -3.957901 2.5769043 -7.944275 3.3742065 -11.959122zm-4.271118 -6.5775146l-24.046387 62.614548l8.798492 0l6.8764954 -18.963745l26.181946 0l7.303589 18.963745l9.439178 0l-25.626678 -62.614548z" fill-rule="evenodd"/><path stroke="#1155cc" stroke-width="2.0" stroke-linejoin="round" stroke-linecap="butt" d="m429.53378 175.12389l0 62.614548l7.6879883 0l0 -62.614548z" fill-rule="evenodd"/><path stroke="#1155cc" stroke-width="2.0" stroke-linejoin="round" stroke-linecap="butt" d="m467.84567 197.67537c3.90094 0 7.0758057 1.4806519 9.524597 4.441971c1.5945435 1.9077606 2.5626526 4.769409 2.904358 8.58493l-25.327728 0c0.25628662 -3.957901 1.5850525 -7.118515 3.9863892 -9.481873c2.410797 -2.3633423 5.381592 -3.5450287 8.912384 -3.5450287zm-0.0854187 -6.3212433c-6.2643127 0 -11.361176 2.1070862 -15.290588 6.3212433c-3.9294434 4.2141724 -5.8941345 10.13678 -5.8941345 17.767838c0 7.3748016 1.940979 13.10759 5.822937 17.198364c3.891449 4.0812836 9.154419 6.121933 15.78891 6.121933c5.2677 0 9.595764 -1.2813416 12.984161 -3.8440094c3.3884277 -2.5626678 5.709076 -6.1646423 6.9619446 -10.805923l-7.944275 -0.9823456c-1.16745 3.246048 -2.7477722 5.6093903 -4.7409363 7.090042c-1.9931946 1.4806519 -4.3992615 2.2209778 -7.2182007 2.2209778c-3.7870483 0 -6.947693 -1.3240356 -9.481873 -3.9721222c-2.5342102 -2.6481018 -3.9436646 -6.463623 -4.2283936 -11.446594l33.82721 0c0.0284729 -0.9111786 0.04272461 -1.5945587 0.04272461 -2.0501404c0 -7.488693 -1.9219971 -13.297409 -5.765991 -17.426147c-3.8440247 -4.1287384 -8.798523 -6.193115 -14.863495 -6.193115z" fill-rule="evenodd"/><path stroke="#1155cc" stroke-width="2.0" stroke-linejoin="round" stroke-linecap="butt" d="m493.89948 192.3792l15.333313 21.782684l-16.57193 23.576553l9.311035 0l11.916412 -17.895966l2.477234 3.8012848l9.311035 14.094681l9.439148 0l-16.87091 -24.003662l15.674988 -21.355576l-9.182861 0l-7.6453247 10.7204895c-1.0535278 1.452179 -2.206726 3.11792 -3.4595947 4.9972076c-0.7972412 -1.3667603 -1.8507996 -3.0609589 -3.160614 -5.0826263l-6.961914 -10.635071z" fill-rule="evenodd"/><path stroke="#1155cc" stroke-width="2.0" stroke-linejoin="round" stroke-linecap="butt" d="m567.06366 175.12389l0 62.614548l8.286011 0l0 -29.513412l32.5459 0l0 29.513412l8.28595 0l0 -62.614548l-8.28595 0l0 25.712112l-32.5459 0l0 -25.712112z" fill-rule="evenodd"/><path stroke="#1155cc" stroke-width="2.0" stroke-linejoin="round" stroke-linecap="butt" d="m657.953 214.97339l0 2.8189392c0 3.3884125 -0.4128418 5.9510803 -1.2385864 7.6880035c-1.0820312 2.2494507 -2.776245 4.024338 -5.0826416 5.3246613c-2.3063965 1.2908173 -4.9402466 1.9362335 -7.9015503 1.9362335c-2.9898071 0 -5.2630005 -0.6833801 -6.81958 -2.0501251c-1.5470581 -1.3667603 -2.3206177 -3.0752106 -2.3206177 -5.125351c0 -1.3382721 0.355896 -2.5531769 1.067749 -3.6446838c0.711853 -1.1009979 1.7227173 -1.9362335 3.0325317 -2.505722c1.3098145 -0.56947327 3.544983 -1.082016 6.7056274 -1.5375977c5.5809326 -0.7972717 9.766602 -1.7653961 12.557068 -2.904358zm-9.780823 -23.619263c-3.90094 0 -7.3320923 0.5362549 -10.293396 1.6087799c-2.9613037 1.063034 -5.2249756 2.5863953 -6.7910767 4.570099c-1.5661011 1.9741974 -2.690796 4.570099 -3.3742065 7.7876587l7.517212 1.0250702c0.8257446 -3.217575 2.0975952 -5.457535 3.8154907 -6.719879c1.727417 -1.2718506 4.399292 -1.9077759 8.015503 -1.9077759c3.8724365 0 6.7910156 0.86846924 8.755737 2.6053925c1.4522095 1.2813263 2.1782837 3.4880676 2.1782837 6.620224c0 0.28474426 -0.014221191 0.95388794 -0.04272461 2.0074158c-2.9328003 1.0250702 -7.5029297 1.9077759 -13.710266 2.6481018c-3.046753 0.37016296 -5.324646 0.7545624 -6.8338013 1.1531982c-2.0501099 0.5694885 -3.8961792 1.4094696 -5.538208 2.5199585c-1.6325073 1.1104889 -2.956543 2.5863953 -3.972107 4.427719c-1.0061035 1.8318329 -1.5091553 3.8582458 -1.5091553 6.0792236c0 3.7870636 1.3383179 6.900223 4.0148315 9.339508c2.6765747 2.429779 6.5063477 3.6446838 11.489319 3.6446838c3.0182495 0 5.84198 -0.49829102 8.471069 -1.4948883c2.6386108 -0.9965973 5.381592 -2.7050476 8.229004 -5.1253357c0.2277832 2.135559 0.74035645 4.0006104 1.5375977 5.595154l8.029724 0c-0.96813965 -1.7369232 -1.6182861 -3.5497742 -1.9505005 -5.438553c-0.32269287 -1.8982697 -0.48406982 -6.4209137 -0.48406982 -13.567902l0 -10.250687c0 -3.4168854 -0.1281128 -5.780243 -0.3843994 -7.090042c-0.4555664 -2.1070862 -1.2528687 -3.848755 -2.3917847 -5.225006c-1.138977 -1.3857422 -2.9186401 -2.534195 -5.338928 -3.4453583c-2.420288 -0.9111786 -5.5667114 -1.3667603 -9.439148 -1.3667603z" fill-rule="evenodd"/><path stroke="#1155cc" stroke-width="2.0" stroke-linejoin="round" stroke-linecap="butt" d="m694.30023 191.35413c-1.7938843 0 -3.4406128 0.51252747 -4.9402466 1.5375977c-1.4901733 1.0250702 -3.11792 3.1463928 -4.883362 6.363968l0 -6.8764954l-6.9191895 0l0 45.359238l7.6879883 0l0 -23.747406c0 -3.246048 0.42712402 -6.2358246 1.2813721 -8.96933c0.569458 -1.793869 1.5233765 -3.1938477 2.8616333 -4.199936c1.3382568 -1.0155792 2.847412 -1.5233612 4.527405 -1.5233612c1.8792725 0 3.758545 0.5552368 5.6378784 1.6657257l2.6480713 -7.1327515c-2.6765747 -1.6515045 -5.310425 -2.4772491 -7.9015503 -2.4772491z" fill-rule="evenodd"/><path stroke="#1155cc" stroke-width="2.0" stroke-linejoin="round" stroke-linecap="butt" d="m723.4292 191.35413c-1.7938232 0 -3.4406128 0.51252747 -4.9402466 1.5375977c-1.4901123 1.0250702 -3.11792 3.1463928 -4.883301 6.363968l0 -6.8764954l-6.9191895 0l0 45.359238l7.6879883 0l0 -23.747406c0 -3.246048 0.42712402 -6.2358246 1.281311 -8.96933c0.56951904 -1.793869 1.5233765 -3.1938477 2.8616943 -4.199936c1.3382568 -1.0155792 2.847412 -1.5233612 4.5273438 -1.5233612c1.8793335 0 3.758606 0.5552368 5.6378784 1.6657257l2.6481323 -7.1327515c-2.6765747 -1.6515045 -5.310425 -2.4772491 -7.9016113 -2.4772491z" fill-rule="evenodd"/><path stroke="#1155cc" stroke-width="2.0" stroke-linejoin="round" stroke-linecap="butt" d="m735.9436 175.12389l0 8.841202l7.6879883 0l0 -8.841202zm0 17.25531l0 45.359238l7.6879883 0l0 -45.359238z" fill-rule="evenodd"/><path stroke="#1155cc" stroke-width="2.0" stroke-linejoin="round" stroke-linecap="butt" d="m770.24066 191.35413c-2.3633423 0 -4.57959 0.30847168 -6.6487427 0.9253998c-2.0596313 0.6074524 -3.687378 1.3525238 -4.883301 2.2352295c-1.5945435 1.1389618 -2.8568726 2.5721588 -3.7870483 4.299576c-0.9206543 1.7179413 -1.3809814 3.587738 -1.3809814 5.6094055c0 2.2209778 0.55999756 4.252136 1.6799927 6.09346c1.1294556 1.8318329 2.7809448 3.2697754 4.954468 4.3138275c2.1829834 1.0345459 6.093445 2.2636871 11.731323 3.6873932c4.18573 1.0535431 6.805298 1.9219971 7.8588867 2.6053772c1.5090942 0.9965973 2.2636719 2.3633575 2.2636719 4.100281c0 1.9362335 -0.85424805 3.6256866 -2.562683 5.06839c-1.708435 1.4331818 -4.328064 2.1497803 -7.8588257 2.1497803c-3.5023193 0 -6.231079 -0.8115082 -8.18634 -2.4345245c-1.9457397 -1.6230316 -3.132141 -3.957901 -3.5592651 -7.0046387l-7.602539 1.1959229c0.854187 4.8121185 2.8236694 8.442566 5.908325 10.891342c3.0941772 2.4487762 7.588379 3.6731567 13.482483 3.6731567c3.5592651 0 6.748413 -0.61694336 9.567322 -1.8508148c2.8189697 -1.2433777 4.9734497 -2.9945374 6.463623 -5.253479c1.4996338 -2.2684326 2.2494507 -4.6839905 2.2494507 -7.2466583c0 -2.6196136 -0.6121826 -4.8121185 -1.8365479 -6.5775146c-1.2244263 -1.7653961 -2.9138794 -3.108429 -5.0684204 -4.0290833c-2.1450195 -0.9301605 -5.9368286 -2.1213226 -11.375427 -3.5735016c-3.758545 -1.0250702 -6.022217 -1.6799774 -6.7910156 -1.9647064c-1.3383179 -0.5410156 -2.3206787 -1.2243958 -2.9470825 -2.0501404c-0.62646484 -0.7972717 -0.93963623 -1.6942139 -0.93963623 -2.6908112c0 -1.5660706 0.7545166 -2.9328308 2.2636719 -4.1002655c1.5090942 -1.1674347 4.0290527 -1.7511597 7.5598755 -1.7511597c2.989746 0 5.3009033 0.6549072 6.9334106 1.9647217c1.6420288 1.3097992 2.63385 3.132141 2.975586 5.4670258l7.517151 -1.0250702c-0.48406982 -2.9328308 -1.3667603 -5.272461 -2.6480713 -7.01886c-1.2813721 -1.7559052 -3.2697754 -3.1463928 -5.965332 -4.171463c-2.6860962 -1.0250702 -5.808716 -1.5375977 -9.367981 -1.5375977z" fill-rule="evenodd"/><path fill="#cfe2f3" d="m131.3622 71.72966l84.31497 0l0 87.36455l-14.05278 14.05278l-70.26219 0z" fill-rule="evenodd"/><path fill="#a5b4c2" d="m201.62439 173.14699l2.8105621 -11.242233l11.242218 -2.8105469z" fill-rule="evenodd"/><path fill="#000000" fill-opacity="0.0" d="m201.62439 173.14699l2.8105621 -11.242233l11.242218 -2.8105469l-14.05278 14.05278l-70.26219 0l0 -101.41733l84.31497 0l0 87.36455" fill-rule="evenodd"/><path stroke="#1155cc" stroke-width="2.0" stroke-linejoin="round" stroke-linecap="butt" d="m201.62439 173.14699l2.8105621 -11.242233l11.242218 -2.8105469l-14.05278 14.05278l-70.26219 0l0 -101.41733l84.31497 0l0 87.36455" fill-rule="evenodd"/><path fill="#cfe2f3" d="m447.59906 100.53306l0 0c-0.97052 -4.8548355 2.2158813 -9.660835 8.207123 -12.378632c5.991211 -2.7177887 13.736542 -2.8707352 19.94931 -0.39393616l0 0c2.2007751 -2.8227997 6.2287903 -4.771759 10.865692 -5.257332c4.636902 -0.48558044 9.338043 0.54924774 12.681427 2.7914658l0 0c1.8747559 -2.5593414 5.5558777 -4.278885 9.737122 -4.548462c4.1812744 -0.2695694 8.270874 0.94898224 10.817627 3.2232513l0 0c3.387024 -2.7128906 8.775879 -3.8551254 13.834717 -2.9324646c5.058899 0.92266846 8.879211 3.7445145 9.807861 7.244522l0 0c4.149658 0.77046967 7.606262 2.7291183 9.476746 5.3698807c1.8704224 2.6407623 1.9711914 5.70459 0.27630615 8.399895l0 0c4.0862427 3.620079 5.0421143 8.443802 2.5109253 12.671028c-2.531189 4.2272263 -8.169189 7.22287 -14.809998 7.8690033c-0.046813965 3.9674072 -3.2432861 7.607849 -8.357483 9.518143c-5.1141357 1.9102936 -11.347351 1.7921448 -16.297058 -0.30891418c-2.1083374 4.751648 -8.042511 8.247879 -15.2388 8.978165c-7.1962585 0.73028564 -14.364563 -1.436264 -18.407898 -5.563629c-4.956299 2.0343933 -10.903442 2.6204376 -16.499878 1.6259308c-5.596405 -0.99450684 -10.370728 -3.485794 -13.245911 -6.911865l0 0c-5.064728 0.40342712 -9.961578 -1.3827362 -12.260315 -4.4720154c-2.2987366 -3.0892868 -1.5100098 -6.8240585 1.974762 -9.350769l0 0c-4.5178223 -1.8100128 -6.82312 -5.40168 -5.7137146 -8.902084c1.1094055 -3.500412 5.3821106 -6.116356 10.590027 -6.483719z" fill-rule="evenodd"/><path fill="#000000" fill-opacity="0.0" d="m442.62262 116.10598l0 0c2.1319885 0.85414886 4.59494 1.2416153 7.0581665 1.1103668m3.2262573 12.71273c1.0592957 -0.0843811 2.0975647 -0.26306152 3.0881042 -0.5314331m26.65622 5.8171387c-0.74502563 -0.7605133 -1.3688049 -1.5731812 -1.8606873 -2.4241486m35.508636 -0.9905243l0 0c0.3843994 -0.8663025 0.63342285 -1.757904 0.74298096 -2.659958m23.910706 -6.548935c0.049804688 -4.223915 -3.4746704 -8.091377 -9.059631 -9.941193m21.358582 -10.598404c-0.90448 1.438324 -2.2852173 2.714241 -4.0340576 3.727707m-5.7182007 -17.497856l0 0c0.15411377 0.5808258 0.22546387 1.1703873 0.2130127 1.760498m-23.855164 -6.07238l0 0c-0.84490967 0.6767349 -1.5410156 1.4329758 -2.0665894 2.2451706m-18.488342 -0.92025757l0 0c-0.45028687 0.6146698 -0.786499 1.2650986 -1.000946 1.9362946m-22.54654 0.52962494l0 0c1.3146362 0.5240936 2.5308228 1.154892 3.6218872 1.87854m-31.777954 10.894096l0 0c0.13375854 0.6691284 0.3451233 1.3300018 0.6320801 1.9764404" fill-rule="evenodd"/><path stroke="#1155cc" stroke-width="2.0" stroke-linejoin="round" stroke-linecap="butt" d="m447.59906 100.53306l0 0c-0.97052 -4.8548355 2.2158813 -9.660835 8.207123 -12.378632c5.991211 -2.7177887 13.736542 -2.8707352 19.94931 -0.39393616l0 0c2.2007751 -2.8227997 6.2287903 -4.771759 10.865692 -5.257332c4.636902 -0.48558044 9.338043 0.54924774 12.681427 2.7914658l0 0c1.8747559 -2.5593414 5.5558777 -4.278885 9.737122 -4.548462c4.1812744 -0.2695694 8.270874 0.94898224 10.817627 3.2232513l0 0c3.387024 -2.7128906 8.775879 -3.8551254 13.834717 -2.9324646c5.058899 0.92266846 8.879211 3.7445145 9.807861 7.244522l0 0c4.149658 0.77046967 7.606262 2.7291183 9.476746 5.3698807c1.8704224 2.6407623 1.9711914 5.70459 0.27630615 8.399895l0 0c4.0862427 3.620079 5.0421143 8.443802 2.5109253 12.671028c-2.531189 4.2272263 -8.169189 7.22287 -14.809998 7.8690033c-0.046813965 3.9674072 -3.2432861 7.607849 -8.357483 9.518143c-5.1141357 1.9102936 -11.347351 1.7921448 -16.297058 -0.30891418c-2.1083374 4.751648 -8.042511 8.247879 -15.2388 8.978165c-7.1962585 0.73028564 -14.364563 -1.436264 -18.407898 -5.563629c-4.956299 2.0343933 -10.903442 2.6204376 -16.499878 1.6259308c-5.596405 -0.99450684 -10.370728 -3.485794 -13.245911 -6.911865l0 0c-5.064728 0.40342712 -9.961578 -1.3827362 -12.260315 -4.4720154c-2.2987366 -3.0892868 -1.5100098 -6.8240585 1.974762 -9.350769l0 0c-4.5178223 -1.8100128 -6.82312 -5.40168 -5.7137146 -8.902084c1.1094055 -3.500412 5.3821106 -6.116356 10.590027 -6.483719z" fill-rule="evenodd"/><path stroke="#1155cc" stroke-width="2.0" stroke-linejoin="round" stroke-linecap="butt" d="m442.62262 116.10598l0 0c2.1319885 0.85414886 4.59494 1.2416153 7.0581665 1.1103668m3.2262573 12.71273c1.0592957 -0.0843811 2.0975647 -0.26306152 3.0881042 -0.5314331m26.65622 5.8171387c-0.74502563 -0.7605133 -1.3688049 -1.5731812 -1.8606873 -2.4241486m35.508636 -0.9905243l0 0c0.3843994 -0.8663025 0.63342285 -1.757904 0.74298096 -2.659958m23.910706 -6.548935c0.049804688 -4.223915 -3.4746704 -8.091377 -9.059631 -9.941193m21.358582 -10.598404c-0.90448 1.438324 -2.2852173 2.714241 -4.0340576 3.727707m-5.7182007 -17.497856l0 0c0.15411377 0.5808258 0.22546387 1.1703873 0.2130127 1.760498m-23.855164 -6.07238l0 0c-0.84490967 0.6767349 -1.5410156 1.4329758 -2.0665894 2.2451706m-18.488342 -0.92025757l0 0c-0.45028687 0.6146698 -0.786499 1.2650986 -1.000946 1.9362946m-22.54654 0.52962494l0 0c1.3146362 0.5240936 2.5308228 1.154892 3.6218872 1.87854m-31.777954 10.894096l0 0c0.13375854 0.6691284 0.3451233 1.3300018 0.6320801 1.9764404" fill-rule="evenodd"/><path class="cloud1" d="m655.13153 51.082745l0 0c-1.3354492 -6.2423325 3.0491333 -12.42186 11.293335 -15.916382c8.244141 -3.494526 18.901978 -3.691183 27.450989 -0.50652313l0 0c3.0283203 -3.629551 8.571045 -6.135504 14.951538 -6.759859c6.380554 -0.6243553 12.849487 0.7062206 17.450134 3.5892544l0 0c2.579712 -3.290783 7.6450806 -5.501768 13.398621 -5.848385c5.75354 -0.34661484 11.380981 1.2201939 14.885437 4.1444416l0 0c4.6606445 -3.4882202 12.075928 -4.9569073 19.03711 -3.7705498c6.9612427 1.1863575 12.218079 4.814678 13.495911 9.31497l0 0c5.710144 0.99066925 10.466553 3.5090828 13.040344 6.90456c2.5737915 3.395481 2.7125244 7.334938 0.38024902 10.800545l0 0c5.6228027 4.654686 6.9381104 10.856998 3.4551392 16.292347c-3.4830322 5.4353485 -11.24115 9.287132 -20.37909 10.117928c-0.06439209 5.1012726 -4.4629517 9.782135 -11.500244 12.23838c-7.0372314 2.4562454 -15.61438 2.304329 -22.425354 -0.39720154c-2.901123 6.1096497 -11.066772 10.605072 -20.969116 11.544083c-9.902344 0.939003 -19.766174 -1.8467407 -25.329956 -7.153694c-6.8200073 2.6158142 -15.003479 3.3693466 -22.704407 2.0906143c-7.7008667 -1.2787247 -14.270508 -4.48201 -18.226868 -8.887238l0 0c-6.9692383 0.51872253 -13.7074585 -1.7779083 -16.870605 -5.7500916c-3.163147 -3.9721909 -2.0778198 -8.774345 2.7173462 -12.02317l0 0c-6.216736 -2.3273087 -9.388855 -6.9454575 -7.8623047 -11.446266c1.5266113 -4.500805 7.406006 -7.8643723 14.572266 -8.336731z" fill-rule="evenodd"/><path fill="#000000" fill-opacity="0.0" d="m648.2838 71.10632l0 0c2.9337158 1.0982666 6.322815 1.5964661 9.71228 1.4277039m4.439453 16.345963c1.4575806 -0.10848999 2.8862915 -0.33823395 4.2493286 -0.68330383m36.67993 7.479637c-1.0252075 -0.97785187 -1.8835449 -2.0227737 -2.5603638 -3.1169586m48.861206 -1.273613l0 0c0.5288696 -1.1138763 0.87158203 -2.2602997 1.0223389 -3.4201431m32.901917 -8.420601c0.068603516 -5.4310913 -4.78125 -10.403847 -12.466309 -12.782333m29.390137 -13.627373c-1.2445679 1.8493881 -3.1445312 3.489956 -5.5509644 4.793068m-7.868469 -22.498657l0 0c0.21209717 0.74682236 0.3102417 1.5048714 0.29309082 2.2636375m-32.82556 -7.807831l0 0c-1.1626587 0.87013817 -2.1204834 1.8425045 -2.843689 2.8868256m-25.440674 -1.1832638l0 0c-0.6195679 0.79034233 -1.0822144 1.6266537 -1.3772583 2.4896793m-31.024841 0.6809921l0 0c1.80896 0.6738701 3.482483 1.4849472 4.9838257 2.415413m-43.72766 14.00758l0 0c0.18408203 0.86035156 0.47491455 1.7101021 0.869751 2.5412903" fill-rule="evenodd"/><path stroke="#1155cc" stroke-width="2.0" stroke-linejoin="round" stroke-linecap="butt" d="m655.13153 51.082745l0 0c-1.3354492 -6.2423325 3.0491333 -12.42186 11.293335 -15.916382c8.244141 -3.494526 18.901978 -3.691183 27.450989 -0.50652313l0 0c3.0283203 -3.629551 8.571045 -6.135504 14.951538 -6.759859c6.380554 -0.6243553 12.849487 0.7062206 17.450134 3.5892544l0 0c2.579712 -3.290783 7.6450806 -5.501768 13.398621 -5.848385c5.75354 -0.34661484 11.380981 1.2201939 14.885437 4.1444416l0 0c4.6606445 -3.4882202 12.075928 -4.9569073 19.03711 -3.7705498c6.9612427 1.1863575 12.218079 4.814678 13.495911 9.31497l0 0c5.710144 0.99066925 10.466553 3.5090828 13.040344 6.90456c2.5737915 3.395481 2.7125244 7.334938 0.38024902 10.800545l0 0c5.6228027 4.654686 6.9381104 10.856998 3.4551392 16.292347c-3.4830322 5.4353485 -11.24115 9.287132 -20.37909 10.117928c-0.06439209 5.1012726 -4.4629517 9.782135 -11.500244 12.23838c-7.0372314 2.4562454 -15.61438 2.304329 -22.425354 -0.39720154c-2.901123 6.1096497 -11.066772 10.605072 -20.969116 11.544083c-9.902344 0.939003 -19.766174 -1.8467407 -25.329956 -7.153694c-6.8200073 2.6158142 -15.003479 3.3693466 -22.704407 2.0906143c-7.7008667 -1.2787247 -14.270508 -4.48201 -18.226868 -8.887238l0 0c-6.9692383 0.51872253 -13.7074585 -1.7779083 -16.870605 -5.7500916c-3.163147 -3.9721909 -2.0778198 -8.774345 2.7173462 -12.02317l0 0c-6.216736 -2.3273087 -9.388855 -6.9454575 -7.8623047 -11.446266c1.5266113 -4.500805 7.406006 -7.8643723 14.572266 -8.336731z" fill-rule="evenodd"/><path stroke="#1155cc" stroke-width="2.0" stroke-linejoin="round" stroke-linecap="butt" d="m648.2838 71.10632l0 0c2.9337158 1.0982666 6.322815 1.5964661 9.71228 1.4277039m4.439453 16.345963c1.4575806 -0.10848999 2.8862915 -0.33823395 4.2493286 -0.68330383m36.67993 7.479637c-1.0252075 -0.97785187 -1.8835449 -2.0227737 -2.5603638 -3.1169586m48.861206 -1.273613l0 0c0.5288696 -1.1138763 0.87158203 -2.2602997 1.0223389 -3.4201431m32.901917 -8.420601c0.068603516 -5.4310913 -4.78125 -10.403847 -12.466309 -12.782333m29.390137 -13.627373c-1.2445679 1.8493881 -3.1445312 3.489956 -5.5509644 4.793068m-7.868469 -22.498657l0 0c0.21209717 0.74682236 0.3102417 1.5048714 0.29309082 2.2636375m-32.82556 -7.807831l0 0c-1.1626587 0.87013817 -2.1204834 1.8425045 -2.843689 2.8868256m-25.440674 -1.1832638l0 0c-0.6195679 0.79034233 -1.0822144 1.6266537 -1.3772583 2.4896793m-31.024841 0.6809921l0 0c1.80896 0.6738701 3.482483 1.4849472 4.9838257 2.415413m-43.72766 14.00758l0 0c0.18408203 0.86035156 0.47491455 1.7101021 0.869751 2.5412903" fill-rule="evenodd"/><path fill="#cfe2f3" d="m527.1207 40.120735l19.22583 -3.5299683l4.128479 -16.438536l4.12854 16.438536l19.22583 3.5299683l-19.22583 3.5299644l-4.12854 16.438538l-4.128479 -16.438538z" fill-rule="evenodd"/><path stroke="#1155cc" stroke-width="2.0" stroke-linejoin="round" stroke-linecap="butt" d="m527.1207 40.120735l19.22583 -3.5299683l4.128479 -16.438536l4.12854 16.438536l19.22583 3.5299683l-19.22583 3.5299644l-4.12854 16.438538l-4.128479 -16.438538z" fill-rule="evenodd"/><path fill="#cfe2f3" d="m794.2782 102.750656l12.640076 -2.6781006l2.7142944 -12.471504l2.7142944 12.471504l12.640015 2.6781006l-12.640015 2.6781006l-2.7142944 12.471504l-2.7142944 -12.471504z" fill-rule="evenodd"/><path stroke="#1155cc" stroke-width="2.0" stroke-linejoin="round" stroke-linecap="butt" d="m794.2782 102.750656l12.640076 -2.6781006l2.7142944 -12.471504l2.7142944 12.471504l12.640015 2.6781006l-12.640015 2.6781006l-2.7142944 12.471504l-2.7142944 -12.471504z" fill-rule="evenodd"/><path fill="#cfe2f3" d="m607.09186 110.6063l12.640076 -2.0489426l2.7142334 -9.541611l2.7142944 9.541611l12.640076 2.0489426l-12.640076 2.048935l-2.7142944 9.541618l-2.7142334 -9.541618z" fill-rule="evenodd"/><path stroke="#1155cc" stroke-width="2.0" stroke-linejoin="round" stroke-linecap="butt" d="m607.09186 110.6063l12.640076 -2.0489426l2.7142334 -9.541611l2.7142944 9.541611l12.640076 2.0489426l-12.640076 2.048935l-2.7142944 9.541618l-2.7142334 -9.541618z" fill-rule="evenodd"/><path fill="#cfe2f3" d="m413.18344 113.94757l0 0c-26.353119 -4.5400467 -44.029053 -29.598 -39.480316 -55.968506c4.5487366 -26.37051 29.59964 -44.0676 55.95276 -39.527557l0 0c-16.96344 8.684328 -28.853973 24.851496 -32.094513 43.637794c-3.240509 18.7863 2.5472412 37.99903 15.62207 51.85827z" fill-rule="evenodd"/><path stroke="#1155cc" stroke-width="2.0" stroke-linejoin="round" stroke-linecap="butt" d="m413.18344 113.94757l0 0c-26.353119 -4.5400467 -44.029053 -29.598 -39.480316 -55.968506c4.5487366 -26.37051 29.59964 -44.0676 55.95276 -39.527557l0 0c-16.96344 8.684328 -28.853973 24.851496 -32.094513 43.637794c-3.240509 18.7863 2.5472412 37.99903 15.62207 51.85827z" fill-rule="evenodd"/><path fill="#cfe2f3" d="m324.95013 119.58268l12.640045 -2.0489426l2.7142944 -9.541611l2.714264 9.541611l12.640045 2.0489426l-12.640045 2.048935l-2.714264 9.541618l-2.7142944 -9.541618z" fill-rule="evenodd"/><path stroke="#1155cc" stroke-width="2.0" stroke-linejoin="round" stroke-linecap="butt" d="m324.95013 119.58268l12.640045 -2.0489426l2.7142944 -9.541611l2.714264 9.541611l12.640045 2.0489426l-12.640045 2.048935l-2.714264 9.541618l-2.7142944 -9.541618z" fill-rule="evenodd"/></g></svg>