<svg version="1.1" viewBox="0.0 0.0 181.54068241469815 176.1233595800525" fill="none" stroke="none" stroke-linecap="square" stroke-miterlimit="10" xmlns:xlink="http://www.w3.org/1999/xlink" xmlns="http://www.w3.org/2000/svg"><clipPath id="p.0"><path d="m0 0l181.54068 0l0 176.12335l-181.54068 0l0 -176.12335z" clip-rule="nonzero"/></clipPath><g clip-path="url(#p.0)"><path fill="#000000" fill-opacity="0.0" d="m0 0l181.54068 0l0 176.12335l-181.54068 0z" fill-rule="evenodd"/><path fill="#cfe2f3" d="m16.695538 6.687664l152.20735 0l0 167.55905l-152.20735 0z" fill-rule="evenodd"/><path fill="#000000" fill-opacity="0.0" d="m35.72146 6.687664l0 167.55905m-19.02592 -146.61417l152.20735 0" fill-rule="evenodd"/><path fill="#000000" fill-opacity="0.0" d="m16.695538 6.687664l152.20735 0l0 167.55905l-152.20735 0z" fill-rule="evenodd"/><path stroke="#1155cc" stroke-width="4.0" stroke-linejoin="round" stroke-linecap="butt" d="m35.72146 6.687664l0 167.55905m-19.02592 -146.61417l152.20735 0" fill-rule="evenodd"/><path stroke="#1155cc" stroke-width="4.0" stroke-linejoin="round" stroke-linecap="butt" d="m16.695538 6.687664l152.20735 0l0 167.55905l-152.20735 0z" fill-rule="evenodd"/><path fill="#000000" fill-opacity="0.0" d="m53.66645 25.192913l98.67716 0l0 103.779526l-98.67716 0z" fill-rule="evenodd"/><path fill="#1155cc" d="m69.3852 78.35291l12.484375 0l0 48.0l-12.484375 0l0 -48.0zm-1.953125 -13.53125q0 -2.7812538 2.0625 -4.750004q2.0625 -1.96875 5.703125 -1.96875q3.65625 0 5.90625 1.96875q2.265625 1.96875 2.265625 4.750004q0 2.78125 -2.265625 4.65625q-2.25 1.859375 -5.90625 1.859375q-3.640625 0 -5.703125 -1.859375q-2.0625 -1.875 -2.0625 -4.65625zm55.902115 61.53125l0 -27.265625q0 -5.859375 -1.6875 -8.4375q-1.671875 -2.59375 -5.703125 -2.59375q-3.546875 0 -6.0 2.0625q-2.4375 2.0625 -3.5 5.125l0 31.109375l-12.484375 0l0 -48.0l9.890625 0l1.4375 6.34375l0.390625 0q2.203125 -3.078125 5.84375 -5.375q3.65625 -2.3125 9.421875 -2.3125q3.546875 0 6.328125 0.96875q2.7812424 0.953125 4.7031174 3.15625q1.921875 2.203125 2.875 6.0q0.96875 3.796875 0.96875 9.359375l0 29.859375l-12.484367 0z" fill-rule="nonzero"/></g></svg>