<svg version="1.1" viewBox="0.0 0.0 914.01312335958 451.5196850393701" fill="none" stroke="none" stroke-linecap="square" stroke-miterlimit="10" xmlns:xlink="http://www.w3.org/1999/xlink" xmlns="http://www.w3.org/2000/svg"><clipPath id="p.0"><path d="m0 0l914.0131 0l0 451.51968l-914.0131 0l0 -451.51968z" clip-rule="nonzero"/></clipPath><g clip-path="url(#p.0)"><path fill="#000000" fill-opacity="0.0" d="m0 0l914.0131 0l0 451.51968l-914.0131 0z" fill-rule="evenodd"/><path fill="#cfe2f3" d="m12.299212 367.40768l0 0c0 -6.6612244 42.33553 -12.061218 94.55906 -12.061218c52.22352 0 94.55906 5.399994 94.55906 12.061218l0 48.244995c0 6.6612244 -42.33554 12.061218 -94.55906 12.061218c-52.223526 0 -94.55906 -5.399994 -94.55906 -12.061218z" fill-rule="evenodd"/><path fill="#000000" fill-opacity="0.0" d="m201.41733 367.40768l0 0c0 6.661255 -42.33554 12.061249 -94.55906 12.061249c-52.223526 0 -94.55906 -5.399994 -94.55906 -12.061249" fill-rule="evenodd"/><path fill="#000000" fill-opacity="0.0" d="m12.299212 367.40768l0 0c0 -6.6612244 42.33553 -12.061218 94.55906 -12.061218c52.22352 0 94.55906 5.399994 94.55906 12.061218l0 48.244995c0 6.6612244 -42.33554 12.061218 -94.55906 12.061218c-52.223526 0 -94.55906 -5.399994 -94.55906 -12.061218z" fill-rule="evenodd"/><path stroke="#3c78d8" stroke-width="4.0" stroke-linejoin="round" stroke-linecap="butt" d="m201.41733 367.40768l0 0c0 6.661255 -42.33554 12.061249 -94.55906 12.061249c-52.223526 0 -94.55906 -5.399994 -94.55906 -12.061249" fill-rule="evenodd"/><path stroke="#3c78d8" stroke-width="4.0" stroke-linejoin="round" stroke-linecap="butt" d="m12.299212 367.40768l0 0c0 -6.6612244 42.33553 -12.061218 94.55906 -12.061218c52.22352 0 94.55906 5.399994 94.55906 12.061218l0 48.244995c0 6.6612244 -42.33554 12.061218 -94.55906 12.061218c-52.223526 0 -94.55906 -5.399994 -94.55906 -12.061218z" fill-rule="evenodd"/><path fill="#cfe2f3" d="m280.2422 34.427223l224.25842 0l0 142.74661l-224.25842 0z" fill-rule="evenodd"/><path fill="#d8e7f5" d="m268.38715 22.572178l247.9685 0l-11.8550415 11.855045l-224.25842 0z" fill-rule="evenodd"/><path fill="#a5b4c2" d="m268.38715 189.02887l11.8550415 -11.8550415l224.25842 0l11.8550415 11.8550415z" fill-rule="evenodd"/><path fill="#e2edf7" d="m268.38715 22.572178l11.8550415 11.855045l0 142.74661l-11.8550415 11.8550415z" fill-rule="evenodd"/><path fill="#7c8791" d="m516.35565 22.572178l0 166.4567l-11.8550415 -11.8550415l0 -142.74661z" fill-rule="evenodd"/><path fill="#000000" fill-opacity="0.0" d="m268.38715 22.572178l247.9685 0l0 166.4567l-247.9685 0zm11.8550415 11.855045l224.25842 0l0 142.74661l-224.25842 0zm-11.8550415 -11.855045l11.8550415 11.855045m-11.8550415 154.60165l11.8550415 -11.8550415m236.11346 -154.60165l-11.8550415 11.855045m11.8550415 154.60165l-11.8550415 -11.8550415" fill-rule="evenodd"/><path stroke="#3c78d8" stroke-width="4.0" stroke-linejoin="round" stroke-linecap="butt" d="m268.38715 22.572178l247.9685 0l0 166.4567l-247.9685 0zm11.8550415 11.855045l224.25842 0l0 142.74661l-224.25842 0zm-11.8550415 -11.855045l11.8550415 11.855045m-11.8550415 154.60165l11.8550415 -11.8550415m236.11346 -154.60165l-11.8550415 11.855045m11.8550415 154.60165l-11.8550415 -11.8550415" fill-rule="evenodd"/><path fill="#cfe2f3" d="m39.480316 208.68504l0 0c0 -17.878952 30.166725 -32.37271 67.379265 -32.37271c37.212547 0 67.379265 14.493759 67.379265 32.37271l0 129.4908c0 17.878967 -30.166718 32.37271 -67.379265 32.37271c-37.21254 0 -67.379265 -14.493744 -67.379265 -32.37271z" fill-rule="evenodd"/><path fill="#000000" fill-opacity="0.0" d="m174.23885 208.68504l0 0c0 17.878952 -30.166718 32.372696 -67.379265 32.372696c-37.21254 0 -67.379265 -14.493744 -67.379265 -32.372696" fill-rule="evenodd"/><path fill="#000000" fill-opacity="0.0" d="m39.480316 208.68504l0 0c0 -17.878952 30.166725 -32.37271 67.379265 -32.37271c37.212547 0 67.379265 14.493759 67.379265 32.37271l0 129.4908c0 17.878967 -30.166718 32.37271 -67.379265 32.37271c-37.21254 0 -67.379265 -14.493744 -67.379265 -32.37271z" fill-rule="evenodd"/><path stroke="#3c78d8" stroke-width="4.0" stroke-linejoin="round" stroke-linecap="butt" d="m174.23885 208.68504l0 0c0 17.878952 -30.166718 32.372696 -67.379265 32.372696c-37.21254 0 -67.379265 -14.493744 -67.379265 -32.372696" fill-rule="evenodd"/><path stroke="#3c78d8" stroke-width="4.0" stroke-linejoin="round" stroke-linecap="butt" d="m39.480316 208.68504l0 0c0 -17.878952 30.166725 -32.37271 67.379265 -32.37271c37.212547 0 67.379265 14.493759 67.379265 32.37271l0 129.4908c0 17.878967 -30.166718 32.37271 -67.379265 32.37271c-37.21254 0 -67.379265 -14.493744 -67.379265 -32.37271z" fill-rule="evenodd"/><path fill="#cfe2f3" d="m12.299212 196.37358l0 0c0 -6.6612396 42.33553 -12.061249 94.55906 -12.061249c52.22352 0 94.55906 5.400009 94.55906 12.061249l0 48.244965c0 6.6612396 -42.33554 12.0612335 -94.55906 12.0612335c-52.223526 0 -94.55906 -5.399994 -94.55906 -12.0612335z" fill-rule="evenodd"/><path fill="#000000" fill-opacity="0.0" d="m201.41733 196.37358l0 0c0 6.6612396 -42.33554 12.0612335 -94.55906 12.0612335c-52.223526 0 -94.55906 -5.399994 -94.55906 -12.0612335" fill-rule="evenodd"/><path fill="#000000" fill-opacity="0.0" d="m12.299212 196.37358l0 0c0 -6.6612396 42.33553 -12.061249 94.55906 -12.061249c52.22352 0 94.55906 5.400009 94.55906 12.061249l0 48.244965c0 6.6612396 -42.33554 12.0612335 -94.55906 12.0612335c-52.223526 0 -94.55906 -5.399994 -94.55906 -12.0612335z" fill-rule="evenodd"/><path stroke="#3c78d8" stroke-width="4.0" stroke-linejoin="round" stroke-linecap="butt" d="m201.41733 196.37358l0 0c0 6.6612396 -42.33554 12.0612335 -94.55906 12.0612335c-52.223526 0 -94.55906 -5.399994 -94.55906 -12.0612335" fill-rule="evenodd"/><path stroke="#3c78d8" stroke-width="4.0" stroke-linejoin="round" stroke-linecap="butt" d="m12.299212 196.37358l0 0c0 -6.6612396 42.33553 -12.061249 94.55906 -12.061249c52.22352 0 94.55906 5.400009 94.55906 12.061249l0 48.244965c0 6.6612396 -42.33554 12.0612335 -94.55906 12.0612335c-52.223526 0 -94.55906 -5.399994 -94.55906 -12.0612335z" fill-rule="evenodd"/><path fill="#3c78d8" d="m46.95013 141.77953l0 0c0 -35.511475 23.915752 -64.29921 53.417324 -64.29921q26.708664 0 53.41732 0q0 32.149605 0 64.29921l0 0c0 35.511475 -23.915741 64.29921 -53.41732 64.29921l0 0c-29.501572 0 -53.417324 -28.787735 -53.417324 -64.29921z" fill-rule="evenodd"/><path stroke="#3c78d8" stroke-width="4.0" stroke-linejoin="round" stroke-linecap="butt" d="m46.95013 141.77953l0 0c0 -35.511475 23.915752 -64.29921 53.417324 -64.29921q26.708664 0 53.41732 0q0 32.149605 0 64.29921l0 0c0 35.511475 -23.915741 64.29921 -53.41732 64.29921l0 0c-29.501572 0 -53.417324 -28.787735 -53.417324 -64.29921z" fill-rule="evenodd"/><path fill="#cfe2f3" d="m43.46181 56.94588l0 0c-1.4449005 -7.993843 3.298996 -15.907257 12.218681 -20.382298c8.919689 -4.4750404 20.45084 -4.726877 29.700367 -0.6486473l0 0c3.2764664 -4.647949 9.273354 -7.8570385 16.176727 -8.65658c6.903366 -0.79953957 13.90239 0.904377 18.879997 4.5963497l0 0c2.7911224 -4.2141304 8.271553 -7.0454884 14.496544 -7.489359c6.2249756 -0.44387245 12.313538 1.562561 16.105133 5.307314l0 0c5.042572 -4.4669685 13.065445 -6.347748 20.597061 -4.828514c7.5316315 1.5192337 13.219254 6.1656113 14.601807 11.928619l0 0c6.1780243 1.2686386 11.324173 4.493683 14.108871 8.841888c2.7846985 4.3482018 2.9347534 9.393017 0.41142273 13.831024l0 0c6.083542 5.960724 7.5066376 13.90332 3.738205 20.863754c-3.7684326 6.9604263 -12.162216 11.892967 -22.04895 12.956879c-0.06968689 6.5326157 -4.828644 12.526855 -12.442566 15.672295c-7.613922 3.1454391 -16.89386 2.9508896 -24.262924 -0.50865173c-3.1388397 7.8239365 -11.973602 13.580711 -22.687355 14.783188c-10.713753 1.2024765 -21.385841 -2.3649063 -27.405533 -9.160919c-7.3788757 3.3497772 -16.232918 4.314743 -24.564827 2.6772156c-8.331913 -1.6375198 -15.439854 -5.7395935 -19.720413 -11.380875l0 0c-7.540287 0.6642761 -14.830704 -2.276764 -18.253044 -7.3634872c-3.4223366 -5.086731 -2.2480602 -11.236298 2.9400406 -15.396706l0 0c-6.7261333 -2.9803162 -10.158213 -8.894257 -8.506542 -14.657928c1.6516705 -5.763668 8.012814 -10.071003 15.766346 -10.6758995z" fill-rule="evenodd"/><path fill="#000000" fill-opacity="0.0" d="m36.05296 82.5878l0 0c3.17408 1.4064178 6.840889 2.0444107 10.508099 1.8283005m4.803253 20.932404c1.577034 -0.13893127 3.1228256 -0.433136 4.597515 -0.8750305m39.68552 9.578331c-1.1091843 -1.2522278 -2.0378494 -2.5903473 -2.770172 -3.9915466m52.864967 -1.6309586l0 0c0.5722656 -1.4264221 0.94303894 -2.894516 1.1061401 -4.3797913m35.597977 -10.78331c0.07418823 -6.9549713 -5.1730347 -13.323021 -13.487839 -16.368874m31.7984 -17.451023c-1.3465576 2.3682976 -3.4022217 4.469185 -6.005829 6.1379356m-8.513199 -28.81147l0 0c0.22943115 0.9563751 0.33561707 1.9271202 0.31707764 2.8987846m-35.51535 -9.9986l0 0c-1.2578735 1.1142864 -2.2941895 2.3594856 -3.076706 3.6968307m-27.52526 -1.5152721l0 0c-0.6703415 1.0120983 -1.1709061 2.0830708 -1.4901657 3.1882496m-33.567062 0.8720665l0 0c1.9571915 0.8629494 3.7678604 1.9016037 5.392235 3.0931435m-47.31075 17.937912l0 0c0.19914627 1.101757 0.5138054 2.1899338 0.9410324 3.2543411" fill-rule="evenodd"/><path stroke="#3c78d8" stroke-width="4.0" stroke-linejoin="round" stroke-linecap="butt" d="m43.46181 56.94588l0 0c-1.4449005 -7.993843 3.298996 -15.907257 12.218681 -20.382298c8.919689 -4.4750404 20.45084 -4.726877 29.700367 -0.6486473l0 0c3.2764664 -4.647949 9.273354 -7.8570385 16.176727 -8.65658c6.903366 -0.79953957 13.90239 0.904377 18.879997 4.5963497l0 0c2.7911224 -4.2141304 8.271553 -7.0454884 14.496544 -7.489359c6.2249756 -0.44387245 12.313538 1.562561 16.105133 5.307314l0 0c5.042572 -4.4669685 13.065445 -6.347748 20.597061 -4.828514c7.5316315 1.5192337 13.219254 6.1656113 14.601807 11.928619l0 0c6.1780243 1.2686386 11.324173 4.493683 14.108871 8.841888c2.7846985 4.3482018 2.9347534 9.393017 0.41142273 13.831024l0 0c6.083542 5.960724 7.5066376 13.90332 3.738205 20.863754c-3.7684326 6.9604263 -12.162216 11.892967 -22.04895 12.956879c-0.06968689 6.5326157 -4.828644 12.526855 -12.442566 15.672295c-7.613922 3.1454391 -16.89386 2.9508896 -24.262924 -0.50865173c-3.1388397 7.8239365 -11.973602 13.580711 -22.687355 14.783188c-10.713753 1.2024765 -21.385841 -2.3649063 -27.405533 -9.160919c-7.3788757 3.3497772 -16.232918 4.314743 -24.564827 2.6772156c-8.331913 -1.6375198 -15.439854 -5.7395935 -19.720413 -11.380875l0 0c-7.540287 0.6642761 -14.830704 -2.276764 -18.253044 -7.3634872c-3.4223366 -5.086731 -2.2480602 -11.236298 2.9400406 -15.396706l0 0c-6.7261333 -2.9803162 -10.158213 -8.894257 -8.506542 -14.657928c1.6516705 -5.763668 8.012814 -10.071003 15.766346 -10.6758995z" fill-rule="evenodd"/><path stroke="#3c78d8" stroke-width="4.0" stroke-linejoin="round" stroke-linecap="butt" d="m36.05296 82.5878l0 0c3.17408 1.4064178 6.840889 2.0444107 10.508099 1.8283005m4.803253 20.932404c1.577034 -0.13893127 3.1228256 -0.433136 4.597515 -0.8750305m39.68552 9.578331c-1.1091843 -1.2522278 -2.0378494 -2.5903473 -2.770172 -3.9915466m52.864967 -1.6309586l0 0c0.5722656 -1.4264221 0.94303894 -2.894516 1.1061401 -4.3797913m35.597977 -10.78331c0.07418823 -6.9549713 -5.1730347 -13.323021 -13.487839 -16.368874m31.7984 -17.451023c-1.3465576 2.3682976 -3.4022217 4.469185 -6.005829 6.1379356m-8.513199 -28.81147l0 0c0.22943115 0.9563751 0.33561707 1.9271202 0.31707764 2.8987846m-35.51535 -9.9986l0 0c-1.2578735 1.1142864 -2.2941895 2.3594856 -3.076706 3.6968307m-27.52526 -1.5152721l0 0c-0.6703415 1.0120983 -1.1709061 2.0830708 -1.4901657 3.1882496m-33.567062 0.8720665l0 0c1.9571915 0.8629494 3.7678604 1.9016037 5.392235 3.0931435m-47.31075 17.937912l0 0c0.19914627 1.101757 0.5138054 2.1899338 0.9410324 3.2543411" fill-rule="evenodd"/><path fill="#3c78d8" d="m642.52496 125.804726l231.59052 -16.11969l0 80.59843l-231.59052 0z" fill-rule="evenodd"/><path stroke="#3c78d8" stroke-width="1.0" stroke-linejoin="round" stroke-linecap="butt" d="m642.52496 125.804726l231.59052 -16.11969l0 80.59843l-231.59052 0z" fill-rule="evenodd"/><path fill="#cfe2f3" d="m630.958 13.154856l259.46454 0l0 185.29134l-259.46454 0zm15.645996 15.646l0 153.99933l228.17255 0l0 -153.99933z" fill-rule="evenodd"/><path stroke="#3c78d8" stroke-width="4.0" stroke-linejoin="round" stroke-linecap="butt" d="m630.958 13.154856l259.46454 0l0 185.29134l-259.46454 0zm15.645996 15.646l0 153.99933l228.17255 0l0 -153.99933z" fill-rule="evenodd"/><path fill="#cfe2f3" d="m99.65879 115.17585l0 0c0 -28.823174 23.915749 -52.188972 53.41732 -52.188972c29.501572 0 53.417328 23.365799 53.417328 52.188972c0 28.823174 -23.915756 52.188972 -53.417328 52.188972c-29.501572 0 -53.41732 -23.365799 -53.41732 -52.188972z" fill-rule="evenodd"/><path fill="#a5b4c2" d="m130.39848 99.56748c0 -3.002411 2.4912262 -5.436348 5.5643005 -5.436348c3.0730896 0 5.564316 2.433937 5.564316 5.436348c0 3.0024185 -2.4912262 5.4363556 -5.564316 5.4363556c-3.0730743 0 -5.5643005 -2.433937 -5.5643005 -5.4363556m34.226654 0c0 -3.002411 2.4912262 -5.436348 5.5643005 -5.436348c3.0730896 0 5.564316 2.433937 5.564316 5.436348c0 3.0024185 -2.4912262 5.4363556 -5.564316 5.4363556c-3.0730743 0 -5.5643005 -2.433937 -5.5643005 -5.4363556" fill-rule="evenodd"/><path fill="#000000" fill-opacity="0.0" d="m124.12357 137.9358q28.952538 19.426834 57.83747 0" fill-rule="evenodd"/><path fill="#000000" fill-opacity="0.0" d="m99.65879 115.17585l0 0c0 -28.823174 23.915749 -52.188972 53.41732 -52.188972c29.501572 0 53.417328 23.365799 53.417328 52.188972c0 28.823174 -23.915756 52.188972 -53.417328 52.188972c-29.501572 0 -53.41732 -23.365799 -53.41732 -52.188972z" fill-rule="evenodd"/><path stroke="#3d85c6" stroke-width="4.0" stroke-linejoin="round" stroke-linecap="butt" d="m130.39848 99.56748c0 -3.002411 2.4912262 -5.436348 5.5643005 -5.436348c3.0730896 0 5.564316 2.433937 5.564316 5.436348c0 3.0024185 -2.4912262 5.4363556 -5.564316 5.4363556c-3.0730743 0 -5.5643005 -2.433937 -5.5643005 -5.4363556m34.226654 0c0 -3.002411 2.4912262 -5.436348 5.5643005 -5.436348c3.0730896 0 5.564316 2.433937 5.564316 5.436348c0 3.0024185 -2.4912262 5.4363556 -5.564316 5.4363556c-3.0730743 0 -5.5643005 -2.433937 -5.5643005 -5.4363556" fill-rule="evenodd"/><path stroke="#3d85c6" stroke-width="4.0" stroke-linejoin="round" stroke-linecap="butt" d="m124.12357 137.9358q28.952538 19.426834 57.83747 0" fill-rule="evenodd"/><path stroke="#3d85c6" stroke-width="4.0" stroke-linejoin="round" stroke-linecap="butt" d="m99.65879 115.17585l0 0c0 -28.823174 23.915749 -52.188972 53.41732 -52.188972c29.501572 0 53.417328 23.365799 53.417328 52.188972c0 28.823174 -23.915756 52.188972 -53.417328 52.188972c-29.501572 0 -53.41732 -23.365799 -53.41732 -52.188972z" fill-rule="evenodd"/><path fill="#cfe2f3" d="m332.6299 362.09186l380.83463 0l0 65.62204l-380.83463 0z" fill-rule="evenodd"/><path fill="#a5b4c2" d="m713.46454 362.09186l21.874023 -21.874023l0 65.62207l-21.874023 21.873993z" fill-rule="evenodd"/><path fill="#d8e7f5" d="m332.6299 362.09186l21.874023 -21.874023l380.83463 0l-21.874023 21.874023z" fill-rule="evenodd"/><path fill="#000000" fill-opacity="0.0" d="m332.6299 362.09186l21.874023 -21.874023l380.83463 0l0 65.62207l-21.874023 21.873993l-380.83463 0zm0 0l380.83463 0l21.874023 -21.874023m-21.874023 21.874023l0 65.62204" fill-rule="evenodd"/><path stroke="#3c78d8" stroke-width="4.0" stroke-linejoin="round" stroke-linecap="butt" d="m332.6299 362.09186l21.874023 -21.874023l380.83463 0l0 65.62207l-21.874023 21.873993l-380.83463 0zm0 0l380.83463 0l21.874023 -21.874023m-21.874023 21.874023l0 65.62204" fill-rule="evenodd"/><path fill="#cfe2f3" d="m523.4383 289.1076l0 0c0 -32.815277 25.720764 -59.417313 57.448853 -59.417313l0 0c15.236389 0 29.848694 6.260025 40.622437 17.402924c10.773743 11.142899 16.826355 26.255936 16.826355 42.01439l0 0c0 32.815277 -25.720703 59.417328 -57.44879 59.417328l0 0c-31.728088 0 -57.448853 -26.60205 -57.448853 -59.417328z" fill-rule="evenodd"/><path fill="#000000" fill-opacity="0.0" d="m580.88715 229.69029l0 118.83464m-57.448853 -59.417328l114.897644 0" fill-rule="evenodd"/><path fill="#000000" fill-opacity="0.0" d="m523.4383 289.1076l0 0c0 -32.815277 25.720764 -59.417313 57.448853 -59.417313l0 0c15.236389 0 29.848694 6.260025 40.622437 17.402924c10.773743 11.142899 16.826355 26.255936 16.826355 42.01439l0 0c0 32.815277 -25.720703 59.417328 -57.44879 59.417328l0 0c-31.728088 0 -57.448853 -26.60205 -57.448853 -59.417328z" fill-rule="evenodd"/><path stroke="#3c78d8" stroke-width="4.0" stroke-linejoin="round" stroke-linecap="butt" d="m580.88715 229.69029l0 118.83464m-57.448853 -59.417328l114.897644 0" fill-rule="evenodd"/><path stroke="#3c78d8" stroke-width="4.0" stroke-linejoin="round" stroke-linecap="butt" d="m523.4383 289.1076l0 0c0 -32.815277 25.720764 -59.417313 57.448853 -59.417313l0 0c15.236389 0 29.848694 6.260025 40.622437 17.402924c10.773743 11.142899 16.826355 26.255936 16.826355 42.01439l0 0c0 32.815277 -25.720703 59.417328 -57.44879 59.417328l0 0c-31.728088 0 -57.448853 -26.60205 -57.448853 -59.417328z" fill-rule="evenodd"/><path fill="#cfe2f3" d="m729.2493 73.531494l-12.557434 4.621666l0 -9.243332zm-9.116455 -22.772911l-5.720093 12.45874l-6.3153687 -6.5359344zm-22.001648 -9.431812l4.4657593 12.995945l-8.9314575 0zm-22.004517 9.431812l12.038391 5.922806l-6.3154297 6.5359344zm-9.113586 22.772911l12.557434 -4.621666l0 9.243332zm9.113586 22.769936l5.7229614 -12.455765l6.3154297 6.5359344zm22.004517 9.434792l-4.4656982 -12.995949l8.9314575 0zm22.001648 -9.434792l-12.035461 -5.9198303l6.3153687 -6.5359344zm-37.56067 -22.769936l0 0c0 -8.893089 6.9660034 -16.10236 15.559021 -16.10236c8.593018 0 15.559082 7.2092705 15.559082 16.10236c0 8.893089 -6.9660645 16.102364 -15.559082 16.102364c-8.593018 0 -15.559021 -7.2092743 -15.559021 -16.102364z" fill-rule="evenodd"/><path stroke="#3c78d8" stroke-width="4.0" stroke-linejoin="round" stroke-linecap="butt" d="m729.2493 73.531494l-12.557434 4.621666l0 -9.243332zm-9.116455 -22.772911l-5.720093 12.45874l-6.3153687 -6.5359344zm-22.001648 -9.431812l4.4657593 12.995945l-8.9314575 0zm-22.004517 9.431812l12.038391 5.922806l-6.3154297 6.5359344zm-9.113586 22.772911l12.557434 -4.621666l0 9.243332zm9.113586 22.769936l5.7229614 -12.455765l6.3154297 6.5359344zm22.004517 9.434792l-4.4656982 -12.995949l8.9314575 0zm22.001648 -9.434792l-12.035461 -5.9198303l6.3153687 -6.5359344zm-37.56067 -22.769936l0 0c0 -8.893089 6.9660034 -16.10236 15.559021 -16.10236c8.593018 0 15.559082 7.2092705 15.559082 16.10236c0 8.893089 -6.9660645 16.102364 -15.559082 16.102364c-8.593018 0 -15.559021 -7.2092743 -15.559021 -16.102364z" fill-rule="evenodd"/><path fill="#cfe2f3" d="m787.3963 262.71915l93.8609 0l-46.93042 82.497375l46.93042 82.497375l-93.8609 0l46.93048 -82.497375z" fill-rule="evenodd"/><path stroke="#3c78d8" stroke-width="4.0" stroke-linejoin="round" stroke-linecap="butt" d="m787.3963 262.71915l93.8609 0l-46.93042 82.497375l46.93042 82.497375l-93.8609 0l46.93048 -82.497375z" fill-rule="evenodd"/></g></svg>