<svg version="1.1" viewBox="0.0 0.0 854.6929133858267 579.4514435695538" fill="none" stroke="none" stroke-linecap="square" stroke-miterlimit="10" xmlns:xlink="http://www.w3.org/1999/xlink" xmlns="http://www.w3.org/2000/svg"><clipPath id="p.0"><path d="m0 0l854.69293 0l0 579.4514l-854.69293 0l0 -579.4514z" clip-rule="nonzero"/></clipPath><g clip-path="url(#p.0)"><path fill="#000000" fill-opacity="0.0" d="m0 0l854.69293 0l0 579.4514l-854.69293 0z" fill-rule="evenodd"/><path fill="#cfe2f3" d="m110.21785 368.1916l0 0c0 -18.908142 12.973167 -34.236206 28.97638 -34.236206l0 0c7.685013 0 15.055267 3.6070251 20.489395 10.027557c5.4341125 6.420532 8.486984 15.128662 8.486984 24.208649l0 0c0 18.908142 -12.973175 34.236237 -28.97638 34.236237l0 0c-16.003212 0 -28.97638 -15.3280945 -28.97638 -34.236237z" fill-rule="evenodd"/><path fill="#cfe2f3" d="m18.979002 84.85171l179.53543 0l0 118.67979l-179.53543 0z" fill-rule="evenodd"/><path fill="#000000" fill-opacity="0.0" d="m41.420933 84.85171l0 118.67979m134.65158 -118.67979l0 118.67979" fill-rule="evenodd"/><path fill="#000000" fill-opacity="0.0" d="m18.979002 84.85171l179.53543 0l0 118.67979l-179.53543 0z" fill-rule="evenodd"/><path stroke="#000000" stroke-width="1.0" stroke-linejoin="round" stroke-linecap="butt" d="m41.420933 84.85171l0 118.67979m134.65158 -118.67979l0 118.67979" fill-rule="evenodd"/><path stroke="#000000" stroke-width="1.0" stroke-linejoin="round" stroke-linecap="butt" d="m18.979002 84.85171l179.53543 0l0 118.67979l-179.53543 0z" fill-rule="evenodd"/><path fill="#000000" d="m78.565155 151.11159l0 -13.359375l4.609375 0q1.546875 0 2.375 0.203125q1.140625 0.25 1.953125 0.953125q1.0625 0.890625 1.578125 2.28125q0.53125 1.390625 0.53125 3.171875q0 1.515625 -0.359375 2.703125q-0.359375 1.171875 -0.921875 1.9375q-0.546875 0.765625 -1.203125 1.21875q-0.65625 0.4375 -1.59375 0.671875q-0.9375 0.21875 -2.140625 0.21875l-4.828125 0zm1.765625 -1.578125l2.859375 0q1.3125 0 2.0625 -0.234375q0.75 -0.25 1.203125 -0.703125q0.625 -0.625 0.96875 -1.6875q0.359375 -1.0625 0.359375 -2.578125q0 -2.09375 -0.6875 -3.21875q-0.6875 -1.125 -1.671875 -1.5q-0.703125 -0.28125 -2.28125 -0.28125l-2.8125 0l0 10.203125zm11.504196 -9.890625l0 -1.890625l1.640625 0l0 1.890625l-1.640625 0zm0 11.46875l0 -9.671875l1.640625 0l0 9.671875l-1.640625 0zm3.4885712 -2.890625l1.625 -0.25q0.125 0.96875 0.75 1.5q0.625 0.515625 1.75 0.515625q1.125 0 1.671875 -0.453125q0.546875 -0.46875 0.546875 -1.09375q0 -0.546875 -0.484375 -0.875q-0.328125 -0.21875 -1.671875 -0.546875q-1.8125 -0.46875 -2.515625 -0.796875q-0.6875 -0.328125 -1.046875 -0.90625q-0.359375 -0.59375 -0.359375 -1.3125q0 -0.640625 0.296875 -1.1875q0.296875 -0.5625 0.8125 -0.921875q0.375 -0.28125 1.03125 -0.46875q0.671875 -0.203125 1.421875 -0.203125q1.140625 0 2.0 0.328125q0.859375 0.328125 1.265625 0.890625q0.421875 0.5625 0.578125 1.5l-1.609375 0.21875q-0.109375 -0.75 -0.640625 -1.171875q-0.515625 -0.421875 -1.46875 -0.421875q-1.140625 0 -1.625 0.375q-0.46875 0.375 -0.46875 0.875q0 0.3125 0.1875 0.578125q0.203125 0.265625 0.640625 0.4375q0.234375 0.09375 1.4375 0.421875q1.75 0.453125 2.4375 0.75q0.6875 0.296875 1.078125 0.859375q0.390625 0.5625 0.390625 1.40625q0 0.828125 -0.484375 1.546875q-0.46875 0.71875 -1.375 1.125q-0.90625 0.390625 -2.046875 0.390625q-1.875 0 -2.875 -0.78125q-0.984375 -0.78125 -1.25 -2.328125zm16.296875 -0.65625l1.609375 0.21875q-0.265625 1.65625 -1.359375 2.609375q-1.078125 0.9375 -2.671875 0.9375q-1.984375 0 -3.1875 -1.296875q-1.203125 -1.296875 -1.203125 -3.71875q0 -1.578125 0.515625 -2.75q0.515625 -1.171875 1.578125 -1.75q1.0625 -0.59375 2.3125 -0.59375q1.578125 0 2.578125 0.796875q1.0 0.796875 1.28125 2.265625l-1.59375 0.234375q-0.234375 -0.96875 -0.8125 -1.453125q-0.578125 -0.5 -1.390625 -0.5q-1.234375 0 -2.015625 0.890625q-0.78125 0.890625 -0.78125 2.8125q0 1.953125 0.75 2.84375q0.75 0.875 1.953125 0.875q0.96875 0 1.609375 -0.59375q0.65625 -0.59375 0.828125 -1.828125zm2.40625 -1.296875q0 -2.6875 1.484375 -3.96875q1.25 -1.078125 3.046875 -1.078125q2.0 0 3.265625 1.3125q1.265625 1.296875 1.265625 3.609375q0 1.859375 -0.5625 2.9375q-0.5625 1.0625 -1.640625 1.65625q-1.0625 0.59375 -2.328125 0.59375q-2.03125 0 -3.28125 -1.296875q-1.25 -1.3125 -1.25 -3.765625zm1.6875 0q0 1.859375 0.796875 2.796875q0.8125 0.921875 2.046875 0.921875q1.21875 0 2.03125 -0.921875q0.8125 -0.9375 0.8125 -2.84375q0 -1.796875 -0.8125 -2.71875q-0.8125 -0.921875 -2.03125 -0.921875q-1.234375 0 -2.046875 0.921875q-0.796875 0.90625 -0.796875 2.765625zm9.281967 4.84375l0 -9.671875l1.46875 0l0 1.46875q0.5625 -1.03125 1.03125 -1.359375q0.484375 -0.328125 1.0625 -0.328125q0.828125 0 1.6875 0.53125l-0.5625 1.515625q-0.609375 -0.359375 -1.203125 -0.359375q-0.546875 0 -0.96875 0.328125q-0.421875 0.328125 -0.609375 0.890625q-0.28125 0.875 -0.28125 1.921875l0 5.0625l-1.625 0zm12.493927 0l0 -1.21875q-0.90625 1.4375 -2.703125 1.4375q-1.15625 0 -2.125 -0.640625q-0.96875 -0.640625 -1.5 -1.78125q-0.53125 -1.140625 -0.53125 -2.625q0 -1.453125 0.484375 -2.625q0.484375 -1.1875 1.4375 -1.8125q0.96875 -0.625 2.171875 -0.625q0.875 0 1.546875 0.375q0.6875 0.359375 1.109375 0.953125l0 -4.796875l1.640625 0l0 13.359375l-1.53125 0zm-5.171875 -4.828125q0 1.859375 0.78125 2.78125q0.78125 0.921875 1.84375 0.921875q1.078125 0 1.828125 -0.875q0.75 -0.890625 0.75 -2.6875q0 -1.984375 -0.765625 -2.90625q-0.765625 -0.9375 -1.890625 -0.9375q-1.078125 0 -1.8125 0.890625q-0.734375 0.890625 -0.734375 2.8125z" fill-rule="nonzero"/><path fill="#cfe2f3" d="m670.87164 146.13252l0 0c-1.2140503 -8.130112 2.7719116 -16.178436 10.266602 -20.729767c7.49469 -4.5513306 17.183655 -4.8074646 24.955444 -0.6597061l0 0c2.7530518 -4.727188 7.79187 -7.9909897 13.592346 -8.804161c5.800476 -0.8131714 11.681335 0.9197998 15.86377 4.674713l0 0c2.3452148 -4.28598 6.9500732 -7.1656036 12.180542 -7.6170425c5.23053 -0.4514389 10.3463745 1.5892029 13.532227 5.3977966l0 0c4.2369385 -4.5431213 10.978088 -6.455963 17.306458 -4.9108353c6.328369 1.5451355 11.107361 6.2707214 12.269043 12.131981l0 0c5.190979 1.290268 9.515015 4.5702896 11.854858 8.992622c2.3397827 4.422333 2.4658813 9.553146 0.3456421 14.066818l0 0c5.1116333 6.0623474 6.307373 14.14035 3.1409912 21.219437c-3.1663818 7.0791016 -10.219177 12.095718 -18.526367 13.17778c-0.05859375 6.6439667 -4.057251 12.7404175 -10.454773 15.939468c-6.397522 3.1990662 -14.194885 3.0012054 -20.386719 -0.5173187c-2.637329 7.957321 -10.060669 13.812241 -19.062805 15.035217c-9.002136 1.2229767 -17.969238 -2.4052277 -23.027222 -9.317093c-6.2000732 3.4068756 -13.639587 4.3882904 -20.64038 2.7228546c-7.0007935 -1.665451 -12.973206 -5.837448 -16.569885 -11.574905l0 0c-6.3356323 0.67559814 -12.461365 -2.3155823 -15.336914 -7.489029c-2.8756104 -5.1734314 -1.888916 -11.427841 2.470337 -15.65918l0 0c-5.6516113 -3.031128 -8.535339 -9.045883 -7.147583 -14.907806c1.3878174 -5.8619385 6.732727 -10.242706 13.247559 -10.85791z" fill-rule="evenodd"/><path fill="#000000" fill-opacity="0.0" d="m664.6464 172.2116l0 0c2.6669922 1.4303894 5.747986 2.0792542 8.829285 1.8594666m4.0358887 21.28926c1.3251343 -0.14129639 2.6239624 -0.44052124 3.863037 -0.88993835m33.345398 9.741608c-0.93200684 -1.2735748 -1.7122803 -2.634491 -2.3276367 -4.0595856m44.41931 -1.6587677l0 0c0.48083496 -1.4507446 0.7923584 -2.943863 0.9293823 -4.4544525m29.910889 -10.967148c0.062316895 -7.0735474 -4.3466187 -13.550156 -11.333008 -16.647934m26.718262 -17.748535c-1.1314087 2.4086761 -2.8586426 4.5453796 -5.0463257 6.242584m-7.153137 -29.30265l0 0c0.19281006 0.97267914 0.28198242 1.9599762 0.26641846 2.948204m-29.84143 -10.16906l0 0c-1.0568848 1.1332855 -1.9276733 2.3997116 -2.585144 3.7598572m-23.127869 -1.5411072l0 0c-0.5632324 1.0293579 -0.9838257 2.1185837 -1.2520752 3.242607m-28.204407 0.8869324l0 0c1.6445312 0.87766266 3.1658936 1.934021 4.5307617 3.145874m-39.75238 18.243713l0 0c0.16729736 1.1205444 0.43170166 2.2272797 0.7906494 3.3098297" fill-rule="evenodd"/><path stroke="#000000" stroke-width="1.0" stroke-linejoin="round" stroke-linecap="butt" d="m670.87164 146.13252l0 0c-1.2140503 -8.130112 2.7719116 -16.178436 10.266602 -20.729767c7.49469 -4.5513306 17.183655 -4.8074646 24.955444 -0.6597061l0 0c2.7530518 -4.727188 7.79187 -7.9909897 13.592346 -8.804161c5.800476 -0.8131714 11.681335 0.9197998 15.86377 4.674713l0 0c2.3452148 -4.28598 6.9500732 -7.1656036 12.180542 -7.6170425c5.23053 -0.4514389 10.3463745 1.5892029 13.532227 5.3977966l0 0c4.2369385 -4.5431213 10.978088 -6.455963 17.306458 -4.9108353c6.328369 1.5451355 11.107361 6.2707214 12.269043 12.131981l0 0c5.190979 1.290268 9.515015 4.5702896 11.854858 8.992622c2.3397827 4.422333 2.4658813 9.553146 0.3456421 14.066818l0 0c5.1116333 6.0623474 6.307373 14.14035 3.1409912 21.219437c-3.1663818 7.0791016 -10.219177 12.095718 -18.526367 13.17778c-0.05859375 6.6439667 -4.057251 12.7404175 -10.454773 15.939468c-6.397522 3.1990662 -14.194885 3.0012054 -20.386719 -0.5173187c-2.637329 7.957321 -10.060669 13.812241 -19.062805 15.035217c-9.002136 1.2229767 -17.969238 -2.4052277 -23.027222 -9.317093c-6.2000732 3.4068756 -13.639587 4.3882904 -20.64038 2.7228546c-7.0007935 -1.665451 -12.973206 -5.837448 -16.569885 -11.574905l0 0c-6.3356323 0.67559814 -12.461365 -2.3155823 -15.336914 -7.489029c-2.8756104 -5.1734314 -1.888916 -11.427841 2.470337 -15.65918l0 0c-5.6516113 -3.031128 -8.535339 -9.045883 -7.147583 -14.907806c1.3878174 -5.8619385 6.732727 -10.242706 13.247559 -10.85791z" fill-rule="evenodd"/><path stroke="#000000" stroke-width="1.0" stroke-linejoin="round" stroke-linecap="butt" d="m664.6464 172.2116l0 0c2.6669922 1.4303894 5.747986 2.0792542 8.829285 1.8594666m4.0358887 21.28926c1.3251343 -0.14129639 2.6239624 -0.44052124 3.863037 -0.88993835m33.345398 9.741608c-0.93200684 -1.2735748 -1.7122803 -2.634491 -2.3276367 -4.0595856m44.41931 -1.6587677l0 0c0.48083496 -1.4507446 0.7923584 -2.943863 0.9293823 -4.4544525m29.910889 -10.967148c0.062316895 -7.0735474 -4.3466187 -13.550156 -11.333008 -16.647934m26.718262 -17.748535c-1.1314087 2.4086761 -2.8586426 4.5453796 -5.0463257 6.242584m-7.153137 -29.30265l0 0c0.19281006 0.97267914 0.28198242 1.9599762 0.26641846 2.948204m-29.84143 -10.16906l0 0c-1.0568848 1.1332855 -1.9276733 2.3997116 -2.585144 3.7598572m-23.127869 -1.5411072l0 0c-0.5632324 1.0293579 -0.9838257 2.1185837 -1.2520752 3.242607m-28.204407 0.8869324l0 0c1.6445312 0.87766266 3.1658936 1.934021 4.5307617 3.145874m-39.75238 18.243713l0 0c0.16729736 1.1205444 0.43170166 2.2272797 0.7906494 3.3098297" fill-rule="evenodd"/><path fill="#000000" d="m692.4513 167.58522l0 -13.359375l9.015625 0l0 1.578125l-7.25 0l0 4.140625l6.265625 0l0 1.578125l-6.265625 0l0 6.0625l-1.765625 0zm11.099121 -11.46875l0 -1.890625l1.640625 0l0 1.890625l-1.640625 0zm0 11.46875l0 -9.671875l1.640625 0l0 9.671875l-1.640625 0zm4.1292114 0l0 -9.671875l1.46875 0l0 1.46875q0.5625 -1.03125 1.03125 -1.359375q0.484375 -0.328125 1.0625 -0.328125q0.828125 0 1.6875 0.53125l-0.5625 1.515625q-0.609375 -0.359375 -1.203125 -0.359375q-0.546875 0 -0.96875 0.328125q-0.421875 0.328125 -0.609375 0.890625q-0.28125 0.875 -0.28125 1.921875l0 5.0625l-1.625 0zm12.8532715 -3.109375l1.6875 0.203125q-0.40625 1.484375 -1.484375 2.3125q-1.078125 0.8125 -2.765625 0.8125q-2.125 0 -3.375 -1.296875q-1.234375 -1.3125 -1.234375 -3.671875q0 -2.453125 1.25 -3.796875q1.265625 -1.34375 3.265625 -1.34375q1.9375 0 3.15625 1.328125q1.234375 1.3125 1.234375 3.703125q0 0.15625 0 0.4375l-7.21875 0q0.09375 1.59375 0.90625 2.453125q0.8125 0.84375 2.015625 0.84375q0.90625 0 1.546875 -0.46875q0.640625 -0.484375 1.015625 -1.515625zm-5.390625 -2.65625l5.40625 0q-0.109375 -1.21875 -0.625 -1.828125q-0.78125 -0.953125 -2.03125 -0.953125q-1.125 0 -1.90625 0.765625q-0.765625 0.75 -0.84375 2.015625zm10.641357 5.765625l-1.515625 0l0 -13.359375l1.640625 0l0 4.765625q1.046875 -1.296875 2.65625 -1.296875q0.890625 0 1.6875 0.359375q0.796875 0.359375 1.3125 1.015625q0.515625 0.640625 0.796875 1.5625q0.296875 0.921875 0.296875 1.96875q0 2.484375 -1.234375 3.84375q-1.21875 1.359375 -2.953125 1.359375q-1.703125 0 -2.6875 -1.4375l0 1.21875zm-0.015625 -4.90625q0 1.734375 0.484375 2.515625q0.765625 1.265625 2.09375 1.265625q1.078125 0 1.859375 -0.9375q0.78125 -0.9375 0.78125 -2.78125q0 -1.890625 -0.75 -2.796875q-0.75 -0.90625 -1.828125 -0.90625q-1.0625 0 -1.859375 0.9375q-0.78125 0.9375 -0.78125 2.703125zm15.203857 3.71875q-0.921875 0.765625 -1.765625 1.09375q-0.828125 0.3125 -1.796875 0.3125q-1.59375 0 -2.453125 -0.78125q-0.859375 -0.78125 -0.859375 -1.984375q0 -0.71875 0.328125 -1.296875q0.328125 -0.59375 0.84375 -0.9375q0.53125 -0.359375 1.1875 -0.546875q0.46875 -0.125 1.453125 -0.25q1.984375 -0.234375 2.921875 -0.5625q0.015625 -0.34375 0.015625 -0.421875q0 -1.0 -0.46875 -1.421875q-0.625 -0.546875 -1.875 -0.546875q-1.15625 0 -1.703125 0.40625q-0.546875 0.40625 -0.8125 1.421875l-1.609375 -0.21875q0.21875 -1.015625 0.71875 -1.640625q0.5 -0.640625 1.453125 -0.984375q0.953125 -0.34375 2.1875 -0.34375q1.25 0 2.015625 0.296875q0.78125 0.28125 1.140625 0.734375q0.375 0.4375 0.515625 1.109375q0.078125 0.421875 0.078125 1.515625l0 2.1875q0 2.28125 0.109375 2.890625q0.109375 0.59375 0.40625 1.15625l-1.703125 0q-0.265625 -0.515625 -0.328125 -1.1875zm-0.140625 -3.671875q-0.890625 0.375 -2.671875 0.625q-1.015625 0.140625 -1.4375 0.328125q-0.421875 0.1875 -0.65625 0.53125q-0.21875 0.34375 -0.21875 0.78125q0 0.65625 0.5 1.09375q0.5 0.4375 1.453125 0.4375q0.9375 0 1.671875 -0.40625q0.75 -0.421875 1.09375 -1.140625q0.265625 -0.5625 0.265625 -1.640625l0 -0.609375zm3.5475464 1.96875l1.625 -0.25q0.125 0.96875 0.75 1.5q0.625 0.515625 1.75 0.515625q1.125 0 1.671875 -0.453125q0.546875 -0.46875 0.546875 -1.09375q0 -0.546875 -0.484375 -0.875q-0.328125 -0.21875 -1.671875 -0.546875q-1.8125 -0.46875 -2.515625 -0.796875q-0.6875 -0.328125 -1.046875 -0.90625q-0.359375 -0.59375 -0.359375 -1.3125q0 -0.640625 0.296875 -1.1875q0.296875 -0.5625 0.8125 -0.921875q0.375 -0.28125 1.03125 -0.46875q0.671875 -0.203125 1.421875 -0.203125q1.140625 0 2.0 0.328125q0.859375 0.328125 1.265625 0.890625q0.421875 0.5625 0.578125 1.5l-1.609375 0.21875q-0.109375 -0.75 -0.640625 -1.171875q-0.515625 -0.421875 -1.46875 -0.421875q-1.140625 0 -1.625 0.375q-0.46875 0.375 -0.46875 0.875q0 0.3125 0.1875 0.578125q0.203125 0.265625 0.640625 0.4375q0.234375 0.09375 1.4375 0.421875q1.75 0.453125 2.4375 0.75q0.6875 0.296875 1.078125 0.859375q0.390625 0.5625 0.390625 1.40625q0 0.828125 -0.484375 1.546875q-0.46875 0.71875 -1.375 1.125q-0.90625 0.390625 -2.046875 0.390625q-1.875 0 -2.875 -0.78125q-0.984375 -0.78125 -1.25 -2.328125zm16.609375 -0.21875l1.6875 0.203125q-0.40625 1.484375 -1.484375 2.3125q-1.078125 0.8125 -2.765625 0.8125q-2.125 0 -3.375 -1.296875q-1.234375 -1.3125 -1.234375 -3.671875q0 -2.453125 1.25 -3.796875q1.265625 -1.34375 3.265625 -1.34375q1.9375 0 3.15625 1.328125q1.234375 1.3125 1.234375 3.703125q0 0.15625 0 0.4375l-7.21875 0q0.09375 1.59375 0.90625 2.453125q0.8125 0.84375 2.015625 0.84375q0.90625 0 1.546875 -0.46875q0.640625 -0.484375 1.015625 -1.515625zm-5.390625 -2.65625l5.40625 0q-0.109375 -1.21875 -0.625 -1.828125q-0.78125 -0.953125 -2.03125 -0.953125q-1.125 0 -1.90625 0.765625q-0.765625 0.75 -0.84375 2.015625z" fill-rule="nonzero"/><path fill="#cfe2f3" d="m335.746 58.48153l0 0c-2.1992798 -8.859993 5.021454 -17.630848 18.598236 -22.590767c13.576752 -4.959921 31.128479 -5.239044 45.207306 -0.7189293l0 0c4.987152 -5.1515656 14.115112 -8.708368 24.622803 -9.59454c10.507721 -0.88617325 21.16101 1.002367 28.737518 5.0943737l0 0c4.248413 -4.670742 12.5902405 -7.8088837 22.065369 -8.30085c9.475128 -0.49196625 18.742615 1.7318707 24.513824 5.882374l0 0c7.6753845 -4.9509735 19.887115 -7.0355396 31.351105 -5.351694c11.463928 1.6838455 20.121155 6.8336697 22.225586 13.221111l0 0c9.4036255 1.4061012 17.236633 4.980587 21.47528 9.799931c4.2386475 4.8193398 4.467041 10.410774 0.6262207 15.329647l0 0c9.259827 6.6065865 11.425964 15.409786 5.6900024 23.124393c-5.735962 7.7146072 -18.512268 13.1816025 -33.561035 14.360786c-0.10601807 7.2404404 -7.3497314 13.884178 -18.938965 17.37043c-11.589233 3.4862518 -25.714386 3.2706223 -36.93094 -0.5637665c-4.777649 8.671677 -18.225159 15.052208 -34.532715 16.384987c-16.307526 1.3327637 -32.551666 -2.6211548 -41.714325 -10.153534c-11.231476 3.712738 -24.708344 4.782257 -37.39044 2.9673004c-12.682129 -1.814949 -23.50122 -6.361496 -30.016693 -12.614021l0 0c-11.477173 0.73625183 -22.574036 -2.5234528 -27.783203 -8.161339c-5.209198 -5.637886 -3.421814 -12.453781 4.475067 -17.06498l0 0c-10.237946 -3.303238 -15.461945 -9.857964 -12.947937 -16.24614c2.514038 -6.3881836 12.196411 -11.162228 23.998169 -11.8326645z" fill-rule="evenodd"/><path fill="#000000" fill-opacity="0.0" d="m324.4689 86.90182l0 0c4.831299 1.5588074 10.412598 2.2659225 15.994507 2.02639m7.311096 23.200485c2.4004211 -0.15398407 4.753296 -0.4800644 6.9979553 -0.9698334m60.405853 10.616158c-1.6882935 -1.3879089 -3.1018372 -2.8710098 -4.216522 -4.424034m80.46646 -1.8076859l0 0c0.87106323 -1.5809708 1.4353943 -3.2081375 1.6836853 -4.854347m54.184143 -11.951706c0.11291504 -7.7085648 -7.8739624 -14.766602 -20.53003 -18.142479m48.400757 -19.341888c-2.0495605 2.6249123 -5.178528 4.95343 -9.141541 6.802994m-12.958069 -31.933258l0 0c0.34924316 1.0599976 0.51086426 2.135929 0.48266602 3.2128754m-54.05841 -11.081974l0 0c-1.9146118 1.2350216 -3.4920044 2.6151428 -4.683075 4.097389m-41.896576 -1.6794529l0 0c-1.0203247 1.1217613 -1.7822571 2.308775 -2.2681885 3.533701m-51.092896 0.96655655l0 0c2.9790955 0.95645523 5.735138 2.1076508 8.207611 3.4282951m-72.01233 19.881527l0 0c0.3031311 1.221138 0.782074 2.4272194 1.432373 3.6069565" fill-rule="evenodd"/><path stroke="#000000" stroke-width="1.0" stroke-linejoin="round" stroke-linecap="butt" d="m335.746 58.48153l0 0c-2.1992798 -8.859993 5.021454 -17.630848 18.598236 -22.590767c13.576752 -4.959921 31.128479 -5.239044 45.207306 -0.7189293l0 0c4.987152 -5.1515656 14.115112 -8.708368 24.622803 -9.59454c10.507721 -0.88617325 21.16101 1.002367 28.737518 5.0943737l0 0c4.248413 -4.670742 12.5902405 -7.8088837 22.065369 -8.30085c9.475128 -0.49196625 18.742615 1.7318707 24.513824 5.882374l0 0c7.6753845 -4.9509735 19.887115 -7.0355396 31.351105 -5.351694c11.463928 1.6838455 20.121155 6.8336697 22.225586 13.221111l0 0c9.4036255 1.4061012 17.236633 4.980587 21.47528 9.799931c4.2386475 4.8193398 4.467041 10.410774 0.6262207 15.329647l0 0c9.259827 6.6065865 11.425964 15.409786 5.6900024 23.124393c-5.735962 7.7146072 -18.512268 13.1816025 -33.561035 14.360786c-0.10601807 7.2404404 -7.3497314 13.884178 -18.938965 17.37043c-11.589233 3.4862518 -25.714386 3.2706223 -36.93094 -0.5637665c-4.777649 8.671677 -18.225159 15.052208 -34.532715 16.384987c-16.307526 1.3327637 -32.551666 -2.6211548 -41.714325 -10.153534c-11.231476 3.712738 -24.708344 4.782257 -37.39044 2.9673004c-12.682129 -1.814949 -23.50122 -6.361496 -30.016693 -12.614021l0 0c-11.477173 0.73625183 -22.574036 -2.5234528 -27.783203 -8.161339c-5.209198 -5.637886 -3.421814 -12.453781 4.475067 -17.06498l0 0c-10.237946 -3.303238 -15.461945 -9.857964 -12.947937 -16.24614c2.514038 -6.3881836 12.196411 -11.162228 23.998169 -11.8326645z" fill-rule="evenodd"/><path stroke="#000000" stroke-width="1.0" stroke-linejoin="round" stroke-linecap="butt" d="m324.4689 86.90182l0 0c4.831299 1.5588074 10.412598 2.2659225 15.994507 2.02639m7.311096 23.200485c2.4004211 -0.15398407 4.753296 -0.4800644 6.9979553 -0.9698334m60.405853 10.616158c-1.6882935 -1.3879089 -3.1018372 -2.8710098 -4.216522 -4.424034m80.46646 -1.8076859l0 0c0.87106323 -1.5809708 1.4353943 -3.2081375 1.6836853 -4.854347m54.184143 -11.951706c0.11291504 -7.7085648 -7.8739624 -14.766602 -20.53003 -18.142479m48.400757 -19.341888c-2.0495605 2.6249123 -5.178528 4.95343 -9.141541 6.802994m-12.958069 -31.933258l0 0c0.34924316 1.0599976 0.51086426 2.135929 0.48266602 3.2128754m-54.05841 -11.081974l0 0c-1.9146118 1.2350216 -3.4920044 2.6151428 -4.683075 4.097389m-41.896576 -1.6794529l0 0c-1.0203247 1.1217613 -1.7822571 2.308775 -2.2681885 3.533701m-51.092896 0.96655655l0 0c2.9790955 0.95645523 5.735138 2.1076508 8.207611 3.4282951m-72.01233 19.881527l0 0c0.3031311 1.221138 0.782074 2.4272194 1.432373 3.6069565" fill-rule="evenodd"/><path fill="#000000" d="m409.23785 81.238884l0 -13.359375l1.765625 0l0 5.484375l6.9375 0l0 -5.484375l1.765625 0l0 13.359375l-1.765625 0l0 -6.296875l-6.9375 0l0 6.296875l-1.765625 0zm19.832336 -3.109375l1.6875 0.203125q-0.40625 1.484375 -1.484375 2.3125q-1.078125 0.8125 -2.765625 0.8125q-2.125 0 -3.375 -1.296875q-1.234375 -1.3125 -1.234375 -3.671875q0 -2.453125 1.25 -3.796875q1.265625 -1.34375 3.265625 -1.34375q1.9375 0 3.15625 1.328125q1.234375 1.3125 1.234375 3.703125q0 0.15625 0 0.4375l-7.21875 0q0.09375 1.59375 0.90625 2.453125q0.8125 0.84375 2.015625 0.84375q0.90625 0 1.546875 -0.46875q0.640625 -0.484375 1.015625 -1.515625zm-5.390625 -2.65625l5.40625 0q-0.109375 -1.21875 -0.625 -1.828125q-0.78125 -0.953125 -2.03125 -0.953125q-1.125 0 -1.90625 0.765625q-0.765625 0.75 -0.84375 2.015625zm9.125702 5.765625l0 -9.671875l1.46875 0l0 1.46875q0.5625 -1.03125 1.03125 -1.359375q0.484375 -0.328125 1.0625 -0.328125q0.828125 0 1.6875 0.53125l-0.5625 1.515625q-0.609375 -0.359375 -1.203125 -0.359375q-0.546875 0 -0.96875 0.328125q-0.421875 0.328125 -0.609375 0.890625q-0.28125 0.875 -0.28125 1.921875l0 5.0625l-1.625 0zm5.618927 -4.84375q0 -2.6875 1.484375 -3.96875q1.25 -1.078125 3.046875 -1.078125q2.0 0 3.265625 1.3125q1.265625 1.296875 1.265625 3.609375q0 1.859375 -0.5625 2.9375q-0.5625 1.0625 -1.640625 1.65625q-1.0625 0.59375 -2.328125 0.59375q-2.03125 0 -3.28125 -1.296875q-1.25 -1.3125 -1.25 -3.765625zm1.6875 0q0 1.859375 0.796875 2.796875q0.8125 0.921875 2.046875 0.921875q1.21875 0 2.03125 -0.921875q0.8125 -0.9375 0.8125 -2.84375q0 -1.796875 -0.8125 -2.71875q-0.8125 -0.921875 -2.03125 -0.921875q-1.234375 0 -2.046875 0.921875q-0.796875 0.90625 -0.796875 2.765625zm9.297607 4.84375l0 -13.359375l1.640625 0l0 7.625l3.890625 -3.9375l2.109375 0l-3.6875 3.59375l4.0625 6.078125l-2.015625 0l-3.203125 -4.953125l-1.15625 1.125l0 3.828125l-1.640625 0zm15.65625 0l0 -1.421875q-1.125 1.640625 -3.0625 1.640625q-0.859375 0 -1.609375 -0.328125q-0.734375 -0.328125 -1.09375 -0.828125q-0.359375 -0.5 -0.5 -1.21875q-0.109375 -0.46875 -0.109375 -1.53125l0 -5.984375l1.640625 0l0 5.359375q0 1.28125 0.109375 1.734375q0.15625 0.640625 0.65625 1.015625q0.5 0.375 1.234375 0.375q0.734375 0 1.375 -0.375q0.65625 -0.390625 0.921875 -1.03125q0.265625 -0.65625 0.265625 -1.890625l0 -5.1875l1.640625 0l0 9.671875l-1.46875 0z" fill-rule="nonzero"/><path fill="#cfe2f3" d="m284.98425 441.68765l0 0c4.561798 0 8.259827 -3.698059 8.259827 -8.259827l-8.259827 0c2.2808838 0 4.1299133 -1.8490295 4.1299133 -4.1299133c0 -2.2809143 -1.8490295 -4.129944 -4.1299133 -4.129944l8.259827 0l0 -127.91336l0 0c0 -4.561798 3.698059 -8.259857 8.259857 -8.259857l99.1181 0c4.561798 0 8.259857 3.698059 8.259857 8.259857c0 4.5617676 -3.698059 8.259827 -8.259857 8.259827l-8.259827 0l0 127.91339c0 4.5617676 -3.698059 8.259827 -8.259857 8.259827zm24.779541 -144.43304l0 0c0 4.5617676 -3.698059 8.259827 -8.259857 8.259827c-2.2808838 0 -4.1299133 -1.8490295 -4.1299133 -4.1299133c0 -2.2809143 1.8490295 -4.1299133 4.1299133 -4.1299133z" fill-rule="evenodd"/><path fill="#a5b4c2" d="m309.7638 297.2546l0 0c0 4.5617676 -3.698059 8.259827 -8.259857 8.259827c-2.2808838 0 -4.1299133 -1.8490295 -4.1299133 -4.1299133c0 -2.2809143 1.8490295 -4.1299133 4.1299133 -4.1299133zm-16.519714 136.17322c0 4.5617676 -3.6980286 8.259827 -8.259827 8.259827c-4.561798 0 -8.259857 -3.698059 -8.259857 -8.259827c0 -4.561798 3.698059 -8.259857 8.259857 -8.259857l0 0c2.2808838 0 4.1299133 1.8490295 4.1299133 4.129944c0 2.2808838 -1.8490295 4.1299133 -4.1299133 4.1299133z" fill-rule="evenodd"/><path fill="#000000" fill-opacity="0.0" d="m293.24408 425.16797l0 -127.91336l0 0c0 -4.561798 3.698059 -8.259857 8.259857 -8.259857l99.1181 0c4.561798 0 8.259857 3.698059 8.259857 8.259857c0 4.5617676 -3.698059 8.259827 -8.259857 8.259827l-8.259827 0l0 127.91339c0 4.5617676 -3.698059 8.259827 -8.259857 8.259827l-99.1181 0l0 0c-4.561798 0 -8.259857 -3.698059 -8.259857 -8.259827c0 -4.561798 3.698059 -8.259857 8.259857 -8.259857zm8.259857 -136.17322l0 0c4.561798 0 8.259857 3.698059 8.259857 8.259857c0 4.5617676 -3.698059 8.259827 -8.259857 8.259827c-2.2808838 0 -4.1299133 -1.8490295 -4.1299133 -4.1299133c0 -2.2809143 1.8490295 -4.1299133 4.1299133 -4.1299133l8.259857 0m82.59842 8.259827l-90.85828 0m-16.519684 119.653534l0 0c2.2808838 0 4.1299133 1.8490295 4.1299133 4.129944c0 2.2808838 -1.8490295 4.1299133 -4.1299133 4.1299133l8.259827 0m-8.259827 8.259827l0 0c4.561798 0 8.259827 -3.698059 8.259827 -8.259827l0 -8.259857" fill-rule="evenodd"/><path stroke="#000000" stroke-width="1.0" stroke-linejoin="round" stroke-linecap="butt" d="m293.24408 425.16797l0 -127.91336l0 0c0 -4.561798 3.698059 -8.259857 8.259857 -8.259857l99.1181 0c4.561798 0 8.259857 3.698059 8.259857 8.259857c0 4.5617676 -3.698059 8.259827 -8.259857 8.259827l-8.259827 0l0 127.91339c0 4.5617676 -3.698059 8.259827 -8.259857 8.259827l-99.1181 0l0 0c-4.561798 0 -8.259857 -3.698059 -8.259857 -8.259827c0 -4.561798 3.698059 -8.259857 8.259857 -8.259857zm8.259857 -136.17322l0 0c4.561798 0 8.259857 3.698059 8.259857 8.259857c0 4.5617676 -3.698059 8.259827 -8.259857 8.259827c-2.2808838 0 -4.1299133 -1.8490295 -4.1299133 -4.1299133c0 -2.2809143 1.8490295 -4.1299133 4.1299133 -4.1299133l8.259857 0m82.59842 8.259827l-90.85828 0m-16.519684 119.653534l0 0c2.2808838 0 4.1299133 1.8490295 4.1299133 4.129944c0 2.2808838 -1.8490295 4.1299133 -4.1299133 4.1299133l8.259827 0m-8.259827 8.259827l0 0c4.561798 0 8.259827 -3.698059 8.259827 -8.259827l0 -8.259857" fill-rule="evenodd"/><path fill="#000000" d="m312.9048 376.39114l0 -13.359375l1.765625 0l0 13.359375l-1.765625 0zm4.683319 0l0 -9.671875l1.46875 0l0 1.375q1.0625 -1.59375 3.078125 -1.59375q0.875 0 1.609375 0.3125q0.734375 0.3125 1.09375 0.828125q0.375 0.5 0.515625 1.203125q0.09375 0.453125 0.09375 1.59375l0 5.953125l-1.640625 0l0 -5.890625q0 -1.0 -0.203125 -1.484375q-0.1875 -0.5 -0.671875 -0.796875q-0.484375 -0.296875 -1.140625 -0.296875q-1.046875 0 -1.8125 0.671875q-0.75 0.65625 -0.75 2.515625l0 5.28125l-1.640625 0zm13.953827 -1.46875l0.234375 1.453125q-0.6875 0.140625 -1.234375 0.140625q-0.890625 0 -1.390625 -0.28125q-0.484375 -0.28125 -0.6875 -0.734375q-0.203125 -0.46875 -0.203125 -1.9375l0 -5.578125l-1.203125 0l0 -1.265625l1.203125 0l0 -2.390625l1.625 -0.984375l0 3.375l1.65625 0l0 1.265625l-1.65625 0l0 5.671875q0 0.6875 0.078125 0.890625q0.09375 0.203125 0.28125 0.328125q0.203125 0.109375 0.578125 0.109375q0.265625 0 0.71875 -0.0625zm8.230194 -1.640625l1.6875 0.203125q-0.40625 1.484375 -1.484375 2.3125q-1.078125 0.8125 -2.765625 0.8125q-2.125 0 -3.375 -1.296875q-1.234375 -1.3125 -1.234375 -3.671875q0 -2.453125 1.25 -3.796875q1.265625 -1.34375 3.265625 -1.34375q1.9375 0 3.15625 1.328125q1.234375 1.3125 1.234375 3.703125q0 0.15625 0 0.4375l-7.21875 0q0.09375 1.59375 0.90625 2.453125q0.8125 0.84375 2.015625 0.84375q0.90625 0 1.546875 -0.46875q0.640625 -0.484375 1.015625 -1.515625zm-5.390625 -2.65625l5.40625 0q-0.109375 -1.21875 -0.625 -1.828125q-0.78125 -0.953125 -2.03125 -0.953125q-1.125 0 -1.90625 0.765625q-0.765625 0.75 -0.84375 2.015625zm9.125702 5.765625l0 -9.671875l1.46875 0l0 1.46875q0.5625 -1.03125 1.03125 -1.359375q0.484375 -0.328125 1.0625 -0.328125q0.828125 0 1.6875 0.53125l-0.5625 1.515625q-0.609375 -0.359375 -1.203125 -0.359375q-0.546875 0 -0.96875 0.328125q-0.421875 0.328125 -0.609375 0.890625q-0.28125 0.875 -0.28125 1.921875l0 5.0625l-1.625 0zm6.228302 0l0 -9.671875l1.46875 0l0 1.375q1.0625 -1.59375 3.078125 -1.59375q0.875 0 1.609375 0.3125q0.734375 0.3125 1.09375 0.828125q0.375 0.5 0.515625 1.203125q0.09375 0.453125 0.09375 1.59375l0 5.953125l-1.640625 0l0 -5.890625q0 -1.0 -0.203125 -1.484375q-0.1875 -0.5 -0.671875 -0.796875q-0.484375 -0.296875 -1.140625 -0.296875q-1.046875 0 -1.8125 0.671875q-0.75 0.65625 -0.75 2.515625l0 5.28125l-1.640625 0zm17.000732 -3.109375l1.6875 0.203125q-0.40625 1.484375 -1.484375 2.3125q-1.078125 0.8125 -2.765625 0.8125q-2.125 0 -3.375 -1.296875q-1.234375 -1.3125 -1.234375 -3.671875q0 -2.453125 1.25 -3.796875q1.265625 -1.34375 3.265625 -1.34375q1.9375 0 3.15625 1.328125q1.234375 1.3125 1.234375 3.703125q0 0.15625 0 0.4375l-7.21875 0q0.09375 1.59375 0.90625 2.453125q0.8125 0.84375 2.015625 0.84375q0.90625 0 1.546875 -0.46875q0.640625 -0.484375 1.015625 -1.515625zm-5.390625 -2.65625l5.40625 0q-0.109375 -1.21875 -0.625 -1.828125q-0.78125 -0.953125 -2.03125 -0.953125q-1.125 0 -1.90625 0.765625q-0.765625 0.75 -0.84375 2.015625zm12.719452 4.296875l0.234375 1.453125q-0.6875 0.140625 -1.234375 0.140625q-0.890625 0 -1.390625 -0.28125q-0.484375 -0.28125 -0.6875 -0.734375q-0.203125 -0.46875 -0.203125 -1.9375l0 -5.578125l-1.203125 0l0 -1.265625l1.203125 0l0 -2.390625l1.625 -0.984375l0 3.375l1.65625 0l0 1.265625l-1.65625 0l0 5.671875q0 0.6875 0.078125 0.890625q0.09375 0.203125 0.28125 0.328125q0.203125 0.109375 0.578125 0.109375q0.265625 0 0.71875 -0.0625z" fill-rule="nonzero"/><path fill="#cfe2f3" d="m408.88058 174.97638l0 0c0 -15.829269 12.973145 -28.661423 28.97638 -28.661423c16.003204 0 28.97638 12.832153 28.97638 28.661423c0 15.829269 -12.973175 28.661423 -28.97638 28.661423c-16.003235 0 -28.97638 -12.832153 -28.97638 -28.661423z" fill-rule="evenodd"/><path fill="#a5b4c2" d="m425.55542 166.4045c0 -1.64888 1.3513489 -2.9855652 3.0183716 -2.9855652c1.6669922 0 3.0183716 1.3366852 3.0183716 2.9855652c0 1.64888 -1.3513794 2.9855652 -3.0183716 2.9855652c-1.6670227 0 -3.0183716 -1.3366852 -3.0183716 -2.9855652m18.566345 0c0 -1.64888 1.3513489 -2.9855652 3.0183716 -2.9855652c1.6669922 0 3.0183716 1.3366852 3.0183716 2.9855652c0 1.64888 -1.3513794 2.9855652 -3.0183716 2.9855652c-1.6670227 0 -3.0183716 -1.3366852 -3.0183716 -2.9855652" fill-rule="evenodd"/><path fill="#000000" fill-opacity="0.0" d="m422.15158 187.47581q15.705383 10.66893 31.374084 0" fill-rule="evenodd"/><path fill="#000000" fill-opacity="0.0" d="m408.88058 174.97638l0 0c0 -15.829269 12.973145 -28.661423 28.97638 -28.661423c16.003204 0 28.97638 12.832153 28.97638 28.661423c0 15.829269 -12.973175 28.661423 -28.97638 28.661423c-16.003235 0 -28.97638 -12.832153 -28.97638 -28.661423z" fill-rule="evenodd"/><path stroke="#000000" stroke-width="1.0" stroke-linejoin="round" stroke-linecap="butt" d="m425.55542 166.4045c0 -1.64888 1.3513489 -2.9855652 3.0183716 -2.9855652c1.6669922 0 3.0183716 1.3366852 3.0183716 2.9855652c0 1.64888 -1.3513794 2.9855652 -3.0183716 2.9855652c-1.6670227 0 -3.0183716 -1.3366852 -3.0183716 -2.9855652m18.566345 0c0 -1.64888 1.3513489 -2.9855652 3.0183716 -2.9855652c1.6669922 0 3.0183716 1.3366852 3.0183716 2.9855652c0 1.64888 -1.3513794 2.9855652 -3.0183716 2.9855652c-1.6670227 0 -3.0183716 -1.3366852 -3.0183716 -2.9855652" fill-rule="evenodd"/><path stroke="#000000" stroke-width="1.0" stroke-linejoin="round" stroke-linecap="butt" d="m422.15158 187.47581q15.705383 10.66893 31.374084 0" fill-rule="evenodd"/><path stroke="#000000" stroke-width="1.0" stroke-linejoin="round" stroke-linecap="butt" d="m408.88058 174.97638l0 0c0 -15.829269 12.973145 -28.661423 28.97638 -28.661423c16.003204 0 28.97638 12.832153 28.97638 28.661423c0 15.829269 -12.973175 28.661423 -28.97638 28.661423c-16.003235 0 -28.97638 -12.832153 -28.97638 -28.661423z" fill-rule="evenodd"/><path fill="#000000" fill-opacity="0.0" d="m397.41077 203.6378l100.188965 0l0 32.0l-100.188965 0z" fill-rule="evenodd"/><path fill="#000000" d="m407.59827 230.5578l0 -13.359375l1.640625 0l0 13.359375l-1.640625 0zm4.191681 -11.46875l0 -1.890625l1.640625 0l0 1.890625l-1.640625 0zm0 11.46875l0 -9.671875l1.640625 0l0 9.671875l-1.640625 0zm4.1448364 0l0 -9.671875l1.46875 0l0 1.375q1.0625 -1.59375 3.078125 -1.59375q0.875 0 1.609375 0.3125q0.734375 0.3125 1.09375 0.828125q0.375 0.5 0.515625 1.203125q0.09375 0.453125 0.09375 1.59375l0 5.953125l-1.640625 0l0 -5.890625q0 -1.0 -0.203125 -1.484375q-0.1875 -0.5 -0.671875 -0.796875q-0.484375 -0.296875 -1.140625 -0.296875q-1.046875 0 -1.8125 0.671875q-0.75 0.65625 -0.75 2.515625l0 5.28125l-1.640625 0zm10.375702 0l0 -13.359375l1.640625 0l0 7.625l3.890625 -3.9375l2.109375 0l-3.6875 3.59375l4.0625 6.078125l-2.015625 0l-3.203125 -4.953125l-1.15625 1.125l0 3.828125l-1.640625 0zm9.453125 0l0 -13.359375l5.015625 0q1.53125 0 2.453125 0.40625q0.921875 0.40625 1.4375 1.25q0.53125 0.84375 0.53125 1.765625q0 0.859375 -0.46875 1.625q-0.453125 0.75 -1.390625 1.203125q1.203125 0.359375 1.859375 1.21875q0.65625 0.859375 0.65625 2.015625q0 0.9375 -0.40625 1.75q-0.390625 0.796875 -0.984375 1.234375q-0.578125 0.4375 -1.453125 0.671875q-0.875 0.21875 -2.15625 0.21875l-5.09375 0zm1.78125 -7.75l2.875 0q1.1875 0 1.6875 -0.140625q0.671875 -0.203125 1.015625 -0.671875q0.34375 -0.46875 0.34375 -1.171875q0 -0.65625 -0.328125 -1.15625q-0.3125 -0.515625 -0.90625 -0.703125q-0.59375 -0.1875 -2.03125 -0.1875l-2.65625 0l0 4.03125zm0 6.171875l3.3125 0q0.859375 0 1.203125 -0.0625q0.609375 -0.109375 1.015625 -0.359375q0.421875 -0.265625 0.6875 -0.75q0.265625 -0.484375 0.265625 -1.125q0 -0.75 -0.390625 -1.296875q-0.375 -0.546875 -1.0625 -0.765625q-0.671875 -0.234375 -1.953125 -0.234375l-3.078125 0l0 4.59375zm9.927948 -3.265625q0 -2.6875 1.484375 -3.96875q1.25 -1.078125 3.046875 -1.078125q2.0 0 3.265625 1.3125q1.265625 1.296875 1.265625 3.609375q0 1.859375 -0.5625 2.9375q-0.5625 1.0625 -1.640625 1.65625q-1.0625 0.59375 -2.328125 0.59375q-2.03125 0 -3.28125 -1.296875q-1.25 -1.3125 -1.25 -3.765625zm1.6875 0q0 1.859375 0.796875 2.796875q0.8125 0.921875 2.046875 0.921875q1.21875 0 2.03125 -0.921875q0.8125 -0.9375 0.8125 -2.84375q0 -1.796875 -0.8125 -2.71875q-0.8125 -0.921875 -2.03125 -0.921875q-1.234375 0 -2.046875 0.921875q-0.796875 0.90625 -0.796875 2.765625zm12.875732 3.375l0.234375 1.453125q-0.6875 0.140625 -1.234375 0.140625q-0.890625 0 -1.390625 -0.28125q-0.484375 -0.28125 -0.6875 -0.734375q-0.203125 -0.46875 -0.203125 -1.9375l0 -5.578125l-1.203125 0l0 -1.265625l1.203125 0l0 -2.390625l1.625 -0.984375l0 3.375l1.65625 0l0 1.265625l-1.65625 0l0 5.671875q0 0.6875 0.078125 0.890625q0.09375 0.203125 0.28125 0.328125q0.203125 0.109375 0.578125 0.109375q0.265625 0 0.71875 -0.0625z" fill-rule="nonzero"/><path fill="#cfe2f3" d="m663.3648 352.7119l124.38641 0l0 78.82944c-62.18982 0 -62.18982 30.32959 -124.38641 15.164795zm10.247925 0l0 -10.219727l123.536865 0l0 79.32391c-4.695862 0 -9.398376 0.549469 -9.398376 0.549469l0 -69.653656zm9.632507 -10.219727l0 -9.972504l124.60718 0l0 79.07666c-5.3514404 0 -10.70282 0.41210938 -10.70282 0.41210938l0 -69.516266z" fill-rule="evenodd"/><path fill="#000000" fill-opacity="0.0" d="m663.3648 352.7119l124.38641 0l0 78.82944c-62.18982 0 -62.18982 30.32959 -124.38641 15.164795zm10.247925 0l0 -10.219727l123.536865 0l0 79.32391c-4.695862 0 -9.398376 0.549469 -9.398376 0.549469m-104.50598 -79.87338l0 -9.972504l124.60718 0l0 79.07666c-5.3514404 0 -10.70282 0.41210938 -10.70282 0.41210938" fill-rule="evenodd"/><path fill="#000000" fill-opacity="0.0" d="m663.3648 446.70615c62.196594 15.164795 62.196594 -15.164795 124.38641 -15.164795l0 -9.175781c0 0 4.7025146 -0.549469 9.398376 -0.549469l0 -9.807648c0 0 5.3513794 -0.41210938 10.70282 -0.41210938l0 -79.07666l-124.60718 0l0 9.972504l-9.632507 0l0 10.219727l-10.247925 0z" fill-rule="evenodd"/><path stroke="#000000" stroke-width="1.0" stroke-linejoin="round" stroke-linecap="butt" d="m663.3648 352.7119l124.38641 0l0 78.82944c-62.18982 0 -62.18982 30.32959 -124.38641 15.164795zm10.247925 0l0 -10.219727l123.536865 0l0 79.32391c-4.695862 0 -9.398376 0.549469 -9.398376 0.549469m-104.50598 -79.87338l0 -9.972504l124.60718 0l0 79.07666c-5.3514404 0 -10.70282 0.41210938 -10.70282 0.41210938" fill-rule="evenodd"/><path fill="#000000" d="m705.76215 401.39465l0 -1.578125l5.65625 0l0 4.953125q-1.296875 1.046875 -2.6875 1.578125q-1.375 0.515625 -2.84375 0.515625q-1.96875 0 -3.578125 -0.84375q-1.609375 -0.84375 -2.421875 -2.4375q-0.8125 -1.59375 -0.8125 -3.5625q0 -1.953125 0.8125 -3.640625q0.8125 -1.6875 2.34375 -2.5q1.53125 -0.828125 3.515625 -0.828125q1.453125 0 2.625 0.46875q1.171875 0.46875 1.828125 1.3125q0.671875 0.828125 1.015625 2.171875l-1.59375 0.4375q-0.296875 -1.015625 -0.75 -1.59375q-0.4375 -0.59375 -1.265625 -0.9375q-0.828125 -0.34375 -1.84375 -0.34375q-1.203125 0 -2.09375 0.375q-0.890625 0.359375 -1.4375 0.96875q-0.53125 0.59375 -0.828125 1.3125q-0.515625 1.234375 -0.515625 2.6875q0 1.78125 0.609375 2.984375q0.625 1.203125 1.796875 1.796875q1.171875 0.578125 2.5 0.578125q1.140625 0 2.234375 -0.4375q1.09375 -0.453125 1.65625 -0.953125l0 -2.484375l-3.921875 0zm8.05835 -6.234375l0 -1.890625l1.640625 0l0 1.890625l-1.640625 0zm0 11.46875l0 -9.671875l1.640625 0l0 9.671875l-1.640625 0zm7.7229004 -1.46875l0.234375 1.453125q-0.6875 0.140625 -1.234375 0.140625q-0.890625 0 -1.390625 -0.28125q-0.484375 -0.28125 -0.6875 -0.734375q-0.203125 -0.46875 -0.203125 -1.9375l0 -5.578125l-1.203125 0l0 -1.265625l1.203125 0l0 -2.390625l1.625 -0.984375l0 3.375l1.65625 0l0 1.265625l-1.65625 0l0 5.671875q0 0.6875 0.078125 0.890625q0.09375 0.203125 0.28125 0.328125q0.203125 0.109375 0.578125 0.109375q0.265625 0 0.71875 -0.0625zm1.6052246 1.46875l0 -13.359375l1.640625 0l0 4.796875q1.140625 -1.328125 2.890625 -1.328125q1.078125 0 1.859375 0.421875q0.796875 0.421875 1.140625 1.171875q0.34375 0.75 0.34375 2.171875l0 6.125l-1.640625 0l0 -6.125q0 -1.234375 -0.53125 -1.796875q-0.53125 -0.5625 -1.515625 -0.5625q-0.71875 0 -1.359375 0.390625q-0.640625 0.375 -0.921875 1.015625q-0.265625 0.640625 -0.265625 1.78125l0 5.296875l-1.640625 0zm16.703796 0l0 -1.421875q-1.125 1.640625 -3.0625 1.640625q-0.859375 0 -1.609375 -0.328125q-0.734375 -0.328125 -1.09375 -0.828125q-0.359375 -0.5 -0.5 -1.21875q-0.109375 -0.46875 -0.109375 -1.53125l0 -5.984375l1.640625 0l0 5.359375q0 1.28125 0.109375 1.734375q0.15625 0.640625 0.65625 1.015625q0.5 0.375 1.234375 0.375q0.734375 0 1.375 -0.375q0.65625 -0.390625 0.921875 -1.03125q0.265625 -0.65625 0.265625 -1.890625l0 -5.1875l1.640625 0l0 9.671875l-1.46875 0zm5.5476074 0l-1.515625 0l0 -13.359375l1.640625 0l0 4.765625q1.046875 -1.296875 2.65625 -1.296875q0.890625 0 1.6875 0.359375q0.796875 0.359375 1.3125 1.015625q0.515625 0.640625 0.796875 1.5625q0.296875 0.921875 0.296875 1.96875q0 2.484375 -1.234375 3.84375q-1.21875 1.359375 -2.953125 1.359375q-1.703125 0 -2.6875 -1.4375l0 1.21875zm-0.015625 -4.90625q0 1.734375 0.484375 2.515625q0.765625 1.265625 2.09375 1.265625q1.078125 0 1.859375 -0.9375q0.78125 -0.9375 0.78125 -2.78125q0 -1.890625 -0.75 -2.796875q-0.75 -0.90625 -1.828125 -0.90625q-1.0625 0 -1.859375 0.9375q-0.78125 0.9375 -0.78125 2.703125z" fill-rule="nonzero"/><path fill="#cfe2f3" d="m575.82153 345.90814l76.66138 0l0 72.923615l-12.7771 12.777161l-63.884277 0z" fill-rule="evenodd"/><path fill="#a5b4c2" d="m639.7058 431.60892l2.55542 -10.22171l10.22168 -2.5554504z" fill-rule="evenodd"/><path fill="#000000" fill-opacity="0.0" d="m639.7058 431.60892l2.55542 -10.22171l10.22168 -2.5554504l-12.7771 12.777161l-63.884277 0l0 -85.700775l76.66138 0l0 72.923615" fill-rule="evenodd"/><path stroke="#000000" stroke-width="1.0" stroke-linejoin="round" stroke-linecap="butt" d="m639.7058 431.60892l2.55542 -10.22171l10.22168 -2.5554504l-12.7771 12.777161l-63.884277 0l0 -85.700775l76.66138 0l0 72.923615" fill-rule="evenodd"/><path fill="#000000" d="m586.21216 378.28995l0 -13.359375l2.65625 0l3.15625 9.453125q0.4375 1.328125 0.640625 1.984375q0.234375 -0.734375 0.703125 -2.140625l3.203125 -9.296875l2.375 0l0 13.359375l-1.703125 0l0 -11.171875l-3.875 11.171875l-1.59375 0l-3.859375 -11.375l0 11.375l-1.703125 0zm21.712646 0l0 -1.421875q-1.125 1.640625 -3.0625 1.640625q-0.859375 0 -1.609375 -0.328125q-0.734375 -0.328125 -1.09375 -0.828125q-0.359375 -0.5 -0.5 -1.21875q-0.109375 -0.46875 -0.109375 -1.53125l0 -5.984375l1.640625 0l0 5.359375q0 1.28125 0.109375 1.734375q0.15625 0.640625 0.65625 1.015625q0.5 0.375 1.234375 0.375q0.734375 0 1.375 -0.375q0.65625 -0.390625 0.921875 -1.03125q0.265625 -0.65625 0.265625 -1.890625l0 -5.1875l1.640625 0l0 9.671875l-1.46875 0zm3.3913574 -2.890625l1.625 -0.25q0.125 0.96875 0.75 1.5q0.625 0.515625 1.75 0.515625q1.125 0 1.671875 -0.453125q0.546875 -0.46875 0.546875 -1.09375q0 -0.546875 -0.484375 -0.875q-0.328125 -0.21875 -1.671875 -0.546875q-1.8125 -0.46875 -2.515625 -0.796875q-0.6875 -0.328125 -1.046875 -0.90625q-0.359375 -0.59375 -0.359375 -1.3125q0 -0.640625 0.296875 -1.1875q0.296875 -0.5625 0.8125 -0.921875q0.375 -0.28125 1.03125 -0.46875q0.671875 -0.203125 1.421875 -0.203125q1.140625 0 2.0 0.328125q0.859375 0.328125 1.265625 0.890625q0.421875 0.5625 0.578125 1.5l-1.609375 0.21875q-0.109375 -0.75 -0.640625 -1.171875q-0.515625 -0.421875 -1.46875 -0.421875q-1.140625 0 -1.625 0.375q-0.46875 0.375 -0.46875 0.875q0 0.3125 0.1875 0.578125q0.203125 0.265625 0.640625 0.4375q0.234375 0.09375 1.4375 0.421875q1.75 0.453125 2.4375 0.75q0.6875 0.296875 1.078125 0.859375q0.390625 0.5625 0.390625 1.40625q0 0.828125 -0.484375 1.546875q-0.46875 0.71875 -1.375 1.125q-0.90625 0.390625 -2.046875 0.390625q-1.875 0 -2.875 -0.78125q-0.984375 -0.78125 -1.25 -2.328125zm9.984375 -8.578125l0 -1.890625l1.640625 0l0 1.890625l-1.640625 0zm0 11.46875l0 -9.671875l1.640625 0l0 9.671875l-1.640625 0zm10.457336 -3.546875l1.609375 0.21875q-0.265625 1.65625 -1.359375 2.609375q-1.078125 0.9375 -2.671875 0.9375q-1.984375 0 -3.1875 -1.296875q-1.203125 -1.296875 -1.203125 -3.71875q0 -1.578125 0.515625 -2.75q0.515625 -1.171875 1.578125 -1.75q1.0625 -0.59375 2.3125 -0.59375q1.578125 0 2.578125 0.796875q1.0 0.796875 1.28125 2.265625l-1.59375 0.234375q-0.234375 -0.96875 -0.8125 -1.453125q-0.578125 -0.5 -1.390625 -0.5q-1.234375 0 -2.015625 0.890625q-0.78125 0.890625 -0.78125 2.8125q0 1.953125 0.75 2.84375q0.75 0.875 1.953125 0.875q0.96875 0 1.609375 -0.59375q0.65625 -0.59375 0.828125 -1.828125z" fill-rule="nonzero"/><path fill="#000000" d="m586.0403 400.28995l0 -9.671875l1.46875 0l0 1.46875q0.5625 -1.03125 1.03125 -1.359375q0.484375 -0.328125 1.0625 -0.328125q0.828125 0 1.6875 0.53125l-0.5625 1.515625q-0.609375 -0.359375 -1.203125 -0.359375q-0.546875 0 -0.96875 0.328125q-0.421875 0.328125 -0.609375 0.890625q-0.28125 0.875 -0.28125 1.921875l0 5.0625l-1.625 0zm12.8532715 -3.109375l1.6875 0.203125q-0.40625 1.484375 -1.484375 2.3125q-1.078125 0.8125 -2.765625 0.8125q-2.125 0 -3.375 -1.296875q-1.234375 -1.3125 -1.234375 -3.671875q0 -2.453125 1.25 -3.796875q1.265625 -1.34375 3.265625 -1.34375q1.9375 0 3.15625 1.328125q1.234375 1.3125 1.234375 3.703125q0 0.15625 0 0.4375l-7.21875 0q0.09375 1.59375 0.90625 2.453125q0.8125 0.84375 2.015625 0.84375q0.90625 0 1.546875 -0.46875q0.640625 -0.484375 1.015625 -1.515625zm-5.390625 -2.65625l5.40625 0q-0.109375 -1.21875 -0.625 -1.828125q-0.78125 -0.953125 -2.03125 -0.953125q-1.125 0 -1.90625 0.765625q-0.765625 0.75 -0.84375 2.015625zm15.453857 2.21875l1.609375 0.21875q-0.265625 1.65625 -1.359375 2.609375q-1.078125 0.9375 -2.671875 0.9375q-1.984375 0 -3.1875 -1.296875q-1.203125 -1.296875 -1.203125 -3.71875q0 -1.578125 0.515625 -2.75q0.515625 -1.171875 1.578125 -1.75q1.0625 -0.59375 2.3125 -0.59375q1.578125 0 2.578125 0.796875q1.0 0.796875 1.28125 2.265625l-1.59375 0.234375q-0.234375 -0.96875 -0.8125 -1.453125q-0.578125 -0.5 -1.390625 -0.5q-1.234375 0 -2.015625 0.890625q-0.78125 0.890625 -0.78125 2.8125q0 1.953125 0.75 2.84375q0.75 0.875 1.953125 0.875q0.96875 0 1.609375 -0.59375q0.65625 -0.59375 0.828125 -1.828125zm2.359375 0.65625l1.625 -0.25q0.125 0.96875 0.75 1.5q0.625 0.515625 1.75 0.515625q1.125 0 1.671875 -0.453125q0.546875 -0.46875 0.546875 -1.09375q0 -0.546875 -0.484375 -0.875q-0.328125 -0.21875 -1.671875 -0.546875q-1.8125 -0.46875 -2.515625 -0.796875q-0.6875 -0.328125 -1.046875 -0.90625q-0.359375 -0.59375 -0.359375 -1.3125q0 -0.640625 0.296875 -1.1875q0.296875 -0.5625 0.8125 -0.921875q0.375 -0.28125 1.03125 -0.46875q0.671875 -0.203125 1.421875 -0.203125q1.140625 0 2.0 0.328125q0.859375 0.328125 1.265625 0.890625q0.421875 0.5625 0.578125 1.5l-1.609375 0.21875q-0.109375 -0.75 -0.640625 -1.171875q-0.515625 -0.421875 -1.46875 -0.421875q-1.140625 0 -1.625 0.375q-0.46875 0.375 -0.46875 0.875q0 0.3125 0.1875 0.578125q0.203125 0.265625 0.640625 0.4375q0.234375 0.09375 1.4375 0.421875q1.75 0.453125 2.4375 0.75q0.6875 0.296875 1.078125 0.859375q0.390625 0.5625 0.390625 1.40625q0 0.828125 -0.484375 1.546875q-0.46875 0.71875 -1.375 1.125q-0.90625 0.390625 -2.046875 0.390625q-1.875 0 -2.875 -0.78125q-0.984375 -0.78125 -1.25 -2.328125z" fill-rule="nonzero"/><path fill="#cfe2f3" d="m222.16513 138.0354l64.28345 -0.052825928l0 -6.18898l12.37796 12.367783l-12.37796 12.388123l0 -6.188965l-64.28345 0.05281067z" fill-rule="evenodd"/><path stroke="#000000" stroke-width="1.0" stroke-linejoin="round" stroke-linecap="butt" d="m222.16513 138.0354l64.28345 -0.052825928l0 -6.18898l12.37796 12.367783l-12.37796 12.388123l0 -6.188965l-64.28345 0.05281067z" fill-rule="evenodd"/><path fill="#cfe2f3" d="m544.24713 158.33527l64.237 -2.5620728l-0.23620605 -6.1811066l12.833862 11.869171l-11.888977 12.85524l-0.23620605 -6.1811066l-64.23706 2.562088z" fill-rule="evenodd"/><path stroke="#000000" stroke-width="1.0" stroke-linejoin="round" stroke-linecap="butt" d="m544.24713 158.33527l64.237 -2.5620728l-0.23620605 -6.1811066l12.833862 11.869171l-11.888977 12.85524l-0.23620605 -6.1811066l-64.23706 2.562088z" fill-rule="evenodd"/><path fill="#cfe2f3" d="m738.70844 238.65114l0.07922363 64.28346l6.188965 0l-12.362732 12.37796l-12.393188 -12.37796l6.188965 0l-0.07922363 -64.28346z" fill-rule="evenodd"/><path stroke="#000000" stroke-width="1.0" stroke-linejoin="round" stroke-linecap="butt" d="m738.70844 238.65114l0.07922363 64.28346l6.188965 0l-12.362732 12.37796l-12.393188 -12.37796l6.188965 0l-0.07922363 -64.28346z" fill-rule="evenodd"/><path fill="#cfe2f3" d="m547.09985 387.51877l-105.480316 0.1409607l0 6.188965l-12.37793 -12.36142l12.37793 -12.394501l0 6.1889954l105.480316 -0.1409607z" fill-rule="evenodd"/><path stroke="#000000" stroke-width="1.0" stroke-linejoin="round" stroke-linecap="butt" d="m547.09985 387.51877l-105.480316 0.1409607l0 6.188965l-12.37793 -12.36142l12.37793 -12.394501l0 6.1889954l105.480316 -0.1409607z" fill-rule="evenodd"/><path fill="#cfe2f3" d="m97.94721 297.07507c-0.64930725 -5.507782 1.4824448 -10.960144 5.490692 -14.043488c4.0082397 -3.0833435 9.190018 -3.2569275 13.346527 -0.447052l0 0c1.4722824 -3.2026672 4.167076 -5.41391 7.269226 -5.9648438c3.1021576 -0.5509033 6.2472763 0.62323 8.484001 3.1672363l0 0c1.254242 -2.903717 3.71698 -4.854645 6.514328 -5.160492c2.7973328 -0.30581665 5.5333557 1.0766907 7.2371674 3.6569824l0 0c2.2660065 -3.0777283 5.8712616 -4.3735657 9.255737 -3.3268127c3.384491 1.0467834 5.940338 4.2481384 6.5616302 8.218903l0 0c2.7761078 0.8740845 5.0885468 3.096161 6.3398743 6.0920715c1.2513123 2.9959412 1.3187561 6.4718323 0.18489075 9.529633l0 0c2.7338715 4.1069336 3.3734283 9.579468 1.6799927 14.375275c-1.6934357 4.795807 -5.4654236 8.194366 -9.908325 8.927399c-0.031311035 4.50119 -2.169815 8.631439 -5.5912476 10.798706c-3.4214172 2.1672668 -7.591461 2.033142 -10.9028015 -0.3506775c-1.4104767 5.39093 -5.380554 9.357544 -10.195007 10.186066c-4.814453 0.82855225 -9.610184 -1.6295166 -12.315224 -6.3122253c-3.3157883 2.308075 -7.294487 2.972992 -11.038551 1.844696c-3.7440643 -1.1282654 -6.938118 -3.9546814 -8.861626 -7.8416443l0 0c-3.388298 0.45770264 -6.6643295 -1.5686951 -8.202217 -5.073517c-1.53788 -3.5048218 -1.0102463 -7.7420044 1.3210449 -10.608612l0 0c-3.0226135 -2.0535278 -4.5649414 -6.1283875 -3.8227158 -10.099731c0.7422333 -3.971344 3.6008224 -6.9392395 7.085129 -7.356018z" fill-rule="evenodd"/><path fill="#cfe2f3" d="m116.133255 351.3937c0 1.0504456 -0.8515625 1.902008 -1.9020157 1.902008c-1.0504532 0 -1.902008 -0.8515625 -1.902008 -1.902008c0 -1.0504456 0.8515549 -1.902008 1.902008 -1.902008c1.0504532 0 1.9020157 0.8515625 1.9020157 1.902008z" fill-rule="evenodd"/><path fill="#cfe2f3" d="m118.92315 349.13516c0 2.100891 -1.7031174 3.804016 -3.8040237 3.804016c-2.1009064 0 -3.8040237 -1.703125 -3.8040237 -3.804016c0 -2.100891 1.7031174 -3.804016 3.8040237 -3.804016c2.1009064 0 3.8040237 1.703125 3.8040237 3.804016z" fill-rule="evenodd"/><path fill="#cfe2f3" d="m123.10482 343.33633c0 3.1513672 -2.5546799 5.7060547 -5.706032 5.7060547c-3.1513596 0 -5.7060394 -2.5546875 -5.7060394 -5.7060547c0 -3.1513367 2.5546799 -5.706024 5.7060394 -5.706024c3.151352 0 5.706032 2.5546875 5.706032 5.706024z" fill-rule="evenodd"/><path fill="#000000" fill-opacity="0.0" d="m99.42572 315.73666l0 0c-1.6479645 0.14892578 -3.2957535 -0.29067993 -4.722122 -1.2597046m8.888458 15.045502c-0.6626816 0.30447388 -1.3573151 0.50720215 -2.0659943 0.6029358m19.867958 6.0212097l0 0c-0.49842072 -0.8628235 -0.9157181 -1.7848206 -1.2447968 -2.7502747m24.264946 -4.1078186c-0.07330322 1.0233765 -0.23989868 2.034912 -0.49705505 3.0177307m10.380234 -21.66336l0 0c3.736206 2.0987244 6.093994 6.4864197 6.060669 11.278503m8.235138 -23.290833c-0.605072 1.6317749 -1.5287933 3.0792847 -2.6987152 4.229065m-3.777237 -19.921234l0 0c0.10310364 0.65896606 0.15081787 1.3278198 0.14248657 1.9973145m-17.377808 -4.3270874l0 0c0.3516388 -0.92144775 0.81733704 -1.779419 1.3825989 -2.5471497m-14.313644 3.7608032l0 0c0.14346313 -0.7614746 0.36839294 -1.4993896 0.66960144 -2.1967468m-15.845657 2.9431152l0 0c0.8795166 0.59454346 1.6931839 1.3101807 2.4231339 2.131134m-20.8274 14.618347l0 0c-0.19199371 -0.73339844 -0.3333969 -1.4831543 -0.42289734 -2.242279" fill-rule="evenodd"/><path stroke="#000000" stroke-width="1.0" stroke-linejoin="round" stroke-linecap="butt" d="m97.94721 297.07507c-0.64930725 -5.507782 1.4824448 -10.960144 5.490692 -14.043488c4.0082397 -3.0833435 9.190018 -3.2569275 13.346527 -0.447052l0 0c1.4722824 -3.2026672 4.167076 -5.41391 7.269226 -5.9648438c3.1021576 -0.5509033 6.2472763 0.62323 8.484001 3.1672363l0 0c1.254242 -2.903717 3.71698 -4.854645 6.514328 -5.160492c2.7973328 -0.30581665 5.5333557 1.0766907 7.2371674 3.6569824l0 0c2.2660065 -3.0777283 5.8712616 -4.3735657 9.255737 -3.3268127c3.384491 1.0467834 5.940338 4.2481384 6.5616302 8.218903l0 0c2.7761078 0.8740845 5.0885468 3.096161 6.3398743 6.0920715c1.2513123 2.9959412 1.3187561 6.4718323 0.18489075 9.529633l0 0c2.7338715 4.1069336 3.3734283 9.579468 1.6799927 14.375275c-1.6934357 4.795807 -5.4654236 8.194366 -9.908325 8.927399c-0.031311035 4.50119 -2.169815 8.631439 -5.5912476 10.798706c-3.4214172 2.1672668 -7.591461 2.033142 -10.9028015 -0.3506775c-1.4104767 5.39093 -5.380554 9.357544 -10.195007 10.186066c-4.814453 0.82855225 -9.610184 -1.6295166 -12.315224 -6.3122253c-3.3157883 2.308075 -7.294487 2.972992 -11.038551 1.844696c-3.7440643 -1.1282654 -6.938118 -3.9546814 -8.861626 -7.8416443l0 0c-3.388298 0.45770264 -6.6643295 -1.5686951 -8.202217 -5.073517c-1.53788 -3.5048218 -1.0102463 -7.7420044 1.3210449 -10.608612l0 0c-3.0226135 -2.0535278 -4.5649414 -6.1283875 -3.8227158 -10.099731c0.7422333 -3.971344 3.6008224 -6.9392395 7.085129 -7.356018z" fill-rule="evenodd"/><path stroke="#000000" stroke-width="1.0" stroke-linejoin="round" stroke-linecap="butt" d="m116.133255 351.3937c0 1.0504456 -0.8515625 1.902008 -1.9020157 1.902008c-1.0504532 0 -1.902008 -0.8515625 -1.902008 -1.902008c0 -1.0504456 0.8515549 -1.902008 1.902008 -1.902008c1.0504532 0 1.9020157 0.8515625 1.9020157 1.902008z" fill-rule="evenodd"/><path stroke="#000000" stroke-width="1.0" stroke-linejoin="round" stroke-linecap="butt" d="m118.92315 349.13516c0 2.100891 -1.7031174 3.804016 -3.8040237 3.804016c-2.1009064 0 -3.8040237 -1.703125 -3.8040237 -3.804016c0 -2.100891 1.7031174 -3.804016 3.8040237 -3.804016c2.1009064 0 3.8040237 1.703125 3.8040237 3.804016z" fill-rule="evenodd"/><path stroke="#000000" stroke-width="1.0" stroke-linejoin="round" stroke-linecap="butt" d="m123.10482 343.33633c0 3.1513672 -2.5546799 5.7060547 -5.706032 5.7060547c-3.1513596 0 -5.7060394 -2.5546875 -5.7060394 -5.7060547c0 -3.1513367 2.5546799 -5.706024 5.7060394 -5.706024c3.151352 0 5.706032 2.5546875 5.706032 5.706024z" fill-rule="evenodd"/><path stroke="#000000" stroke-width="1.0" stroke-linejoin="round" stroke-linecap="butt" d="m99.42572 315.73666l0 0c-1.6479645 0.14892578 -3.2957535 -0.29067993 -4.722122 -1.2597046m8.888458 15.045502c-0.6626816 0.30447388 -1.3573151 0.50720215 -2.0659943 0.6029358m19.867958 6.0212097l0 0c-0.49842072 -0.8628235 -0.9157181 -1.7848206 -1.2447968 -2.7502747m24.264946 -4.1078186c-0.07330322 1.0233765 -0.23989868 2.034912 -0.49705505 3.0177307m10.380234 -21.66336l0 0c3.736206 2.0987244 6.093994 6.4864197 6.060669 11.278503m8.235138 -23.290833c-0.605072 1.6317749 -1.5287933 3.0792847 -2.6987152 4.229065m-3.777237 -19.921234l0 0c0.10310364 0.65896606 0.15081787 1.3278198 0.14248657 1.9973145m-17.377808 -4.3270874l0 0c0.3516388 -0.92144775 0.81733704 -1.779419 1.3825989 -2.5471497m-14.313644 3.7608032l0 0c0.14346313 -0.7614746 0.36839294 -1.4993896 0.66960144 -2.1967468m-15.845657 2.9431152l0 0c0.8795166 0.59454346 1.6931839 1.3101807 2.4231339 2.131134m-20.8274 14.618347l0 0c-0.19199371 -0.73339844 -0.3333969 -1.4831543 -0.42289734 -2.242279" fill-rule="evenodd"/><path fill="#cfe2f3" d="m150.08398 345.2467l0 0c0 -8.836548 4.7803345 -16.0 10.67717 -16.0l0 0c2.8317566 0 5.5475464 1.68573 7.5498962 4.68631c2.0023499 3.0005798 3.1272736 7.0702515 3.1272736 11.31369l0 0c0 8.836578 -4.7803345 16.0 -10.67717 16.0l0 0c-5.8968353 0 -10.67717 -7.1634216 -10.67717 -16.0z" fill-rule="evenodd"/><path fill="#000000" d="m163.68242 350.1286l0 0c0 -4.557434 1.7344513 -8.251953 3.8740082 -8.251953l0 0c1.0274506 0 2.0128326 0.86938477 2.7393494 2.4169312c0.7265167 1.5475464 1.1346741 3.6464844 1.1346741 5.835022l0 0c0 4.557434 -1.7344666 8.251984 -3.8740234 8.251984l0 0c-2.139557 0 -3.8740082 -3.6945496 -3.8740082 -8.251984z" fill-rule="evenodd"/><path stroke="#000000" stroke-width="1.0" stroke-linejoin="round" stroke-linecap="butt" d="m163.68242 350.1286l0 0c0 -4.557434 1.7344513 -8.251953 3.8740082 -8.251953l0 0c1.0274506 0 2.0128326 0.86938477 2.7393494 2.4169312c0.7265167 1.5475464 1.1346741 3.6464844 1.1346741 5.835022l0 0c0 4.557434 -1.7344666 8.251984 -3.8740234 8.251984l0 0c-2.139557 0 -3.8740082 -3.6945496 -3.8740082 -8.251984z" fill-rule="evenodd"/><path fill="#000000" fill-opacity="0.0" d="m195.74016 352.0761l63.716537 6.8031616" fill-rule="evenodd"/><path stroke="#000000" stroke-width="1.0" stroke-linejoin="round" stroke-linecap="butt" stroke-dasharray="4.0,3.0" d="m195.74016 352.0761l57.750458 6.1661377" fill-rule="evenodd"/><path fill="#000000" stroke="#000000" stroke-width="1.0" stroke-linecap="butt" d="m253.31525 359.88464l4.687805 -1.1605835l-4.337082 -2.1242065z" fill-rule="evenodd"/><path fill="#000000" fill-opacity="0.0" d="m108.637794 390.92914l57.95275 0l0 19.905518l-57.95275 0z" fill-rule="evenodd"/><path fill="#000000" d="m118.794044 421.56787l-0.1875 -1.53125q0.546875 0.140625 0.9375 0.140625q0.546875 0 0.875 -0.1875q0.328125 -0.171875 0.546875 -0.5q0.15625 -0.25 0.5 -1.21875q0.046875 -0.140625 0.140625 -0.40625l-3.671875 -9.6875l1.765625 0l2.015625 5.59375q0.390625 1.078125 0.703125 2.25q0.28125 -1.125 0.671875 -2.203125l2.078125 -5.640625l1.640625 0l-3.6875 9.828125q-0.59375 1.609375 -0.921875 2.203125q-0.4375 0.8125 -1.0 1.1875q-0.5625 0.375 -1.34375 0.375q-0.484375 0 -1.0625 -0.203125zm8.796875 -8.5625q0 -2.6875 1.4843826 -3.96875q1.25 -1.078125 3.046875 -1.078125q2.0 0 3.265625 1.3125q1.265625 1.296875 1.265625 3.609375q0 1.859375 -0.5625 2.9375q-0.5625 1.0625 -1.640625 1.65625q-1.0625 0.59375 -2.328125 0.59375q-2.03125 0 -3.28125 -1.296875q-1.2500076 -1.3125 -1.2500076 -3.765625zm1.6875076 0q0 1.859375 0.796875 2.796875q0.8125 0.921875 2.046875 0.921875q1.21875 0 2.03125 -0.921875q0.8125 -0.9375 0.8125 -2.84375q0 -1.796875 -0.8125 -2.71875q-0.8125 -0.921875 -2.03125 -0.921875q-1.234375 0 -2.046875 0.921875q-0.796875 0.90625 -0.796875 2.765625zm15.625717 4.84375l0 -1.421875q-1.125 1.640625 -3.0625 1.640625q-0.859375 0 -1.609375 -0.328125q-0.734375 -0.328125 -1.09375 -0.828125q-0.359375 -0.5 -0.5 -1.21875q-0.109375 -0.46875 -0.109375 -1.53125l0 -5.984375l1.640625 0l0 5.359375q0 1.28125 0.109375 1.734375q0.15625 0.640625 0.65625 1.015625q0.5 0.375 1.234375 0.375q0.734375 0 1.375 -0.375q0.65625 -0.390625 0.921875 -1.03125q0.265625 -0.65625 0.265625 -1.890625l0 -5.1875l1.640625 0l0 9.671875l-1.46875 0z" fill-rule="nonzero"/><path fill="#cfe2f3" d="m163.19685 370.5433l0 -11.181091l21.354324 11.181091z" fill-rule="evenodd"/><path stroke="#000000" stroke-width="1.0" stroke-linejoin="round" stroke-linecap="butt" d="m163.19685 370.5433l0 -11.181091l21.354324 11.181091z" fill-rule="evenodd"/><path fill="#cfe2f3" d="m171.4462 389.8504l0 0c-16.629425 0 -30.110245 -2.5029907 -30.110245 -5.5905457c0 -3.0875854 13.48082 -5.590576 30.110245 -5.590576l0 0c-9.477417 1.3197632 -15.055115 3.3909912 -15.055115 5.590576c0 2.1995544 5.5776978 4.2707825 15.055115 5.5905457z" fill-rule="evenodd"/><path stroke="#000000" stroke-width="1.0" stroke-linejoin="round" stroke-linecap="butt" d="m171.4462 389.8504l0 0c-16.629425 0 -30.110245 -2.5029907 -30.110245 -5.5905457c0 -3.0875854 13.48082 -5.590576 30.110245 -5.590576l0 0c-9.477417 1.3197632 -15.055115 3.3909912 -15.055115 5.590576c0 2.1995544 5.5776978 4.2707825 15.055115 5.5905457z" fill-rule="evenodd"/></g></svg>